<svg xmlns="http://www.w3.org/2000/svg" viewBox="0 0 500 500"><g id="freepik--landing-page--inject-7"><polygon points="68.55 222.15 68.51 207.88 61.07 203.65 61.11 217.58 61.11 217.58 61.11 217.9 68.55 222.15 68.55 222.15" style="fill:#FFCD00"></polygon><path d="M69,387.38l-.47-165.23-7.44-4.25.46,164.92a3.13,3.13,0,0,0,1.25,2.79h0l0,0,0,0,7.34,4.48A3.09,3.09,0,0,1,69,387.38Z" style="fill:#FFCD00"></path><path d="M69,387.38l-.47-165.23-7.44-4.25.46,164.92a3.13,3.13,0,0,0,1.25,2.79h0l0,0,0,0,7.34,4.48A3.09,3.09,0,0,1,69,387.38Z" style="fill:#fff;opacity:0.2"></path><path d="M73.44,389.9a5.45,5.45,0,0,1-.86.4A5.45,5.45,0,0,0,73.44,389.9Z" style="fill:#455a64"></path><path d="M72,390.44l-.18,0Z" style="fill:#455a64"></path><path d="M70.45,390.28h0l0,0Z" style="fill:#455a64"></path><path d="M68.54,207.85l0-8.21A9.71,9.71,0,0,1,72.9,192l249-143.75a3.15,3.15,0,0,1,3.08-.33l-7.35-4.51h0a3.06,3.06,0,0,0-3.18.26l-249,143.75a9.68,9.68,0,0,0-4.39,7.62l0,8.22h0l0,0v.32l7.44,4.24Z" style="fill:#FFCD00"></path><path d="M68.54,207.85l0-8.21A9.71,9.71,0,0,1,72.9,192l249-143.75a3.15,3.15,0,0,1,3.08-.33l-7.35-4.51h0a3.06,3.06,0,0,0-3.18.26l-249,143.75a9.68,9.68,0,0,0-4.39,7.62l0,8.22h0l0,0v.32l7.44,4.24Z" style="fill:#fff;opacity:0.30000000000000004"></path><polygon points="68.55 222.15 68.51 207.88 61.07 203.65 61.11 217.58 61.11 217.58 61.11 217.9 68.55 222.15 68.55 222.15" style="opacity:0.2"></polygon><polygon points="68.55 222.15 68.51 207.88 61.07 203.65 61.11 217.58 61.11 217.58 61.11 217.9 68.55 222.15 68.55 222.15" style="fill:#fff;opacity:0.2"></polygon><path d="M321.89,48.27c2.43-1.4,4.41-.27,4.42,2.53l0,8.22L68.54,207.85l0-8.21A9.71,9.71,0,0,1,72.9,192Z" style="fill:#FFCD00"></path><path d="M305.2,61.87c1.3-.76,2.36-.15,2.36,1.34a5.16,5.16,0,0,1-2.35,4.07c-1.3.76-2.36.15-2.36-1.34A5.13,5.13,0,0,1,305.2,61.87Z" style="fill:#fff"></path><path d="M312.39,57.71c1.3-.75,2.36-.14,2.36,1.35a5.13,5.13,0,0,1-2.35,4.07c-1.3.75-2.36.15-2.36-1.35A5.19,5.19,0,0,1,312.39,57.71Z" style="fill:#fff"></path><path d="M319.57,53.57c1.31-.76,2.36-.15,2.37,1.34A5.19,5.19,0,0,1,319.59,59c-1.3.76-2.36.15-2.37-1.34A5.19,5.19,0,0,1,319.57,53.57Z" style="fill:#fff"></path><path d="M120.38,169.77c1-.56,1.87-.46,2.33.26l2.34,3.6c.47.72,1.36.82,2.33.26L326.3,59l0,14.29L68.55,222.17l0-14.29,7.64-4.41a5.89,5.89,0,0,0,2.33-2.95l2.3-6.28a5.79,5.79,0,0,1,2.32-2.94Z" style="fill:#e0e0e0"></path><path d="M326.34,73.31l.47,165.24a9.67,9.67,0,0,1-4.39,7.6L73.44,389.9c-2.44,1.41-4.41.28-4.42-2.52l-.47-165.23Z" style="fill:#FFCD00"></path><g style="opacity:0.4"><path d="M326.34,73.31l.47,165.24a9.67,9.67,0,0,1-4.39,7.6L73.44,389.9c-2.44,1.41-4.41.28-4.42-2.52l-.47-165.23Z" style="fill:#fff"></path></g><path d="M316.15,67.82c1.73-1,3.13-.2,3.14,1.79A6.9,6.9,0,0,1,316.17,75L98,201c-1.73,1-3.14.19-3.15-1.8a6.9,6.9,0,0,1,3.13-5.4Z" style="fill:#fff"></path><path d="M72.67,209.15a.31.31,0,0,1,.33,0c.16.11.15.44,0,.73l-1.37,2.25L75.21,210a.27.27,0,0,1,.44.25.94.94,0,0,1-.44.77l-3.61,2.08,1.38.66c.18.09.2.4,0,.69a1,1,0,0,1-.32.36.35.35,0,0,1-.31,0l-2.21-1.06-.09-.09v0l0-.18,0-.22,0,0,.08-.18,2.21-3.62A.81.81,0,0,1,72.67,209.15Z" style="fill:#e0e0e0"></path><path d="M80.49,204.64a.33.33,0,0,1,.3,0L83,205.65l.08.1h0l0,.18,0,.22,0,.05-.07.18L80.81,210a.86.86,0,0,1-.3.3.29.29,0,0,1-.32,0c-.17-.1-.16-.43,0-.73l1.37-2.24L78,209.45c-.24.13-.44,0-.44-.26a1,1,0,0,1,.43-.76l3.62-2.08-1.38-.66c-.19-.09-.19-.4,0-.71A.88.88,0,0,1,80.49,204.64Z" style="fill:#e0e0e0"></path><path d="M87.91,200.35a2,2,0,0,1,1.5-.28l.33-.44a.83.83,0,0,1,.24-.22.42.42,0,0,1,.24,0c.15,0,.22.18.2.4l-.19,1.36a1,1,0,0,1-.19.45.82.82,0,0,1-.24.22l-.11.05-1.07.3a.25.25,0,0,1-.33-.23.85.85,0,0,1,.2-.61l.1-.14a1.39,1.39,0,0,0-.67.2,3.51,3.51,0,0,0-1.59,2.74c0,1,.72,1.42,1.6.91a3.42,3.42,0,0,0,1.39-1.74,1,1,0,0,1,.38-.49.45.45,0,0,1,.21-.06c.22,0,.3.28.18.59A5.43,5.43,0,0,1,87.93,206c-1.36.78-2.47.15-2.48-1.42A5.44,5.44,0,0,1,87.91,200.35Z" style="fill:#e0e0e0"></path><g style="opacity:0.30000000000000004"><path d="M72.67,209.15a.31.31,0,0,1,.33,0c.16.11.15.44,0,.73l-1.37,2.25L75.21,210a.27.27,0,0,1,.44.25.94.94,0,0,1-.44.77l-3.61,2.08,1.38.66c.18.09.2.4,0,.69a1,1,0,0,1-.32.36.35.35,0,0,1-.31,0l-2.21-1.06-.09-.09v0l0-.18,0-.22,0,0,.08-.18,2.21-3.62A.81.81,0,0,1,72.67,209.15Z"></path></g><g style="opacity:0.30000000000000004"><path d="M80.49,204.64a.33.33,0,0,1,.3,0L83,205.65l.08.1h0l0,.18,0,.22,0,.05-.07.18L80.81,210a.86.86,0,0,1-.3.3.29.29,0,0,1-.32,0c-.17-.1-.16-.43,0-.73l1.37-2.24L78,209.45c-.24.13-.44,0-.44-.26a1,1,0,0,1,.43-.76l3.62-2.08-1.38-.66c-.19-.09-.19-.4,0-.71A.88.88,0,0,1,80.49,204.64Z"></path></g><g style="opacity:0.30000000000000004"><path d="M87.91,200.35a2,2,0,0,1,1.5-.28l.33-.44a.83.83,0,0,1,.24-.22.42.42,0,0,1,.24,0c.15,0,.22.18.2.4l-.19,1.36a1,1,0,0,1-.19.45.82.82,0,0,1-.24.22l-.11.05-1.07.3a.25.25,0,0,1-.33-.23.85.85,0,0,1,.2-.61l.1-.14a1.39,1.39,0,0,0-.67.2,3.51,3.51,0,0,0-1.59,2.74c0,1,.72,1.42,1.6.91a3.42,3.42,0,0,0,1.39-1.74,1,1,0,0,1,.38-.49.45.45,0,0,1,.21-.06c.22,0,.3.28.18.59A5.43,5.43,0,0,1,87.93,206c-1.36.78-2.47.15-2.48-1.42A5.44,5.44,0,0,1,87.91,200.35Z"></path></g><g style="opacity:0.6000000000000001"><path d="M314.9,121.62l.23,59.41a15.34,15.34,0,0,1-7.63,13.29L178.79,269a5.1,5.1,0,0,1-7.66-4.4l-.22-59.41a15.31,15.31,0,0,1,7.62-13.29l128.71-74.66A5.1,5.1,0,0,1,314.9,121.62Z" style="fill:#fff"></path></g><polygon points="262.71 157.59 236.88 206.65 229.57 220.55 234.6 204.9 220.36 193.84 204.5 225.35 204.56 244.6 287.79 196.54 287.73 177.29 262.71 157.59" style="fill:#FFCD00"></polygon><path d="M235.42,183.6a15.63,15.63,0,0,0,7.07-12.25c0-4.5-3.2-6.32-7.12-4.06a15.6,15.6,0,0,0-7.07,12.25C228.31,184,231.5,185.86,235.42,183.6Z" style="fill:#FFCD00"></path><g style="opacity:0.30000000000000004"><polygon points="262.71 157.59 236.88 206.65 229.57 220.55 234.6 204.9 220.36 193.84 204.5 225.35 204.56 244.6 287.79 196.54 287.73 177.29 262.71 157.59" style="fill:#fff"></polygon><path d="M235.42,183.6a15.63,15.63,0,0,0,7.07-12.25c0-4.5-3.2-6.32-7.12-4.06a15.6,15.6,0,0,0-7.07,12.25C228.31,184,231.5,185.86,235.42,183.6Z" style="fill:#fff"></path></g><g style="opacity:0.6000000000000001"><path d="M239,245.61l.1,35.88a6.94,6.94,0,0,1-3.45,6L174.47,323a2.31,2.31,0,0,1-3.46-2l-.1-35.89a6.89,6.89,0,0,1,3.45-6l61.16-35.49A2.31,2.31,0,0,1,239,245.61Z" style="fill:#fff"></path></g><polygon points="198.93 275.67 217.88 277.3 199 300.76 198.93 275.67" style="fill:#FFCD00"></polygon><g style="opacity:0.30000000000000004"><polygon points="198.93 275.67 217.88 277.3 199 300.76 198.93 275.67" style="fill:#fff"></polygon></g><g style="opacity:0.6000000000000001"><path d="M314.2,202l.1,35.88a6.91,6.91,0,0,1-3.45,6L250,278.75a2.31,2.31,0,0,1-3.47-2l-.1-35.88a6.94,6.94,0,0,1,3.45-6L310.73,200A2.31,2.31,0,0,1,314.2,202Z" style="fill:#fff"></path></g><polygon points="273.51 230.76 292.45 232.39 273.58 255.85 273.51 230.76" style="fill:#FFCD00"></polygon><g style="opacity:0.30000000000000004"><polygon points="273.51 230.76 292.45 232.39 273.58 255.85 273.51 230.76" style="fill:#fff"></polygon></g><g style="opacity:0.7000000000000001"><polygon points="136.43 199.35 136.45 208.4 84.68 238.29 84.66 229.25 136.43 199.35" style="fill:#fff"></polygon><polygon points="115.65 225.35 115.67 229.85 84.71 247.73 84.7 243.23 115.65 225.35" style="fill:#fff"></polygon><polygon points="199.45 163.01 199.47 168.29 184.48 176.94 184.46 171.67 199.45 163.01" style="fill:#fff"></polygon><polygon points="228.2 146.41 228.21 151.69 208.23 163.23 208.22 157.95 228.2 146.41" style="fill:#fff"></polygon><polygon points="285.99 113.05 286 118.33 271.01 126.98 271 121.71 285.99 113.05" style="fill:#fff"></polygon><polygon points="314.74 96.45 314.75 101.73 294.77 113.27 294.75 107.99 314.74 96.45" style="fill:#fff"></polygon><polygon points="260.71 127.64 260.72 132.92 236.87 146.7 236.85 141.42 260.71 127.64" style="fill:#fff"></polygon></g><g style="opacity:0.7000000000000001"><polygon points="136.83 250.19 136.84 254.18 84.77 284.24 84.76 280.25 136.83 250.19" style="fill:#fff"></polygon><polygon points="105.22 275.37 105.24 279.35 84.79 291.16 84.78 287.17 105.22 275.37" style="fill:#fff"></polygon><polygon points="136.89 273.57 136.9 277.56 84.84 307.62 84.83 303.63 136.89 273.57" style="fill:#fff"></polygon><polygon points="136.87 266.65 136.88 270.63 84.82 300.69 84.81 296.71 136.87 266.65" style="fill:#fff"></polygon><polygon points="136.81 243.27 136.82 247.25 84.75 277.31 84.74 273.33 136.81 243.27" style="fill:#fff"></polygon><polygon points="125.67 286.98 125.68 290.96 84.86 314.53 84.84 310.55 125.67 286.98" style="fill:#fff"></polygon></g><g style="opacity:0.7000000000000001"><path d="M135.3,312c4.48-2.59,8.13-.51,8.15,4.64s-3.61,11.43-8.1,14L91.77,355.81c-4.49,2.59-8.14.52-8.15-4.64s3.61-11.43,8.09-14Z" style="fill:#FFCD00"></path></g><polygon points="107.21 334.02 107.25 341 105.38 342.07 105.35 338.9 104.04 342.22 103.14 342.74 101.81 341.06 101.82 344.13 99.95 345.21 99.93 338.22 101.61 337.25 103.61 339.83 105.53 334.99 107.21 334.02" style="fill:#fff"></polygon><path d="M111.41,331.44c2-1.14,3.43-.44,3.44,1.67a7,7,0,0,1-3.42,5.64c-2,1.14-3.44.44-3.45-1.67A7,7,0,0,1,111.41,331.44Zm0,5.4a3,3,0,0,0,1.36-2.53c0-1.09-.61-1.4-1.37-1a3,3,0,0,0-1.35,2.53c0,1.09.61,1.39,1.36,1" style="fill:#fff"></path><path d="M120.15,331.39l1.29,1.41-2.19,1.27-1-1.16-.56.32V335l-2,1.18,0-7,2.93-1.7c1.69-1,2.77-.58,2.78,1A4.43,4.43,0,0,1,120.15,331.39Zm-1.76-.37a1.46,1.46,0,0,0,.83-1.29c0-.51-.27-.67-.83-.34l-.75.43v1.63l.74-.43" style="fill:#fff"></path><polygon points="127 322.59 127.01 324.38 124.08 326.06 124.08 326.88 126.65 325.4 126.66 327.09 124.09 328.57 124.09 329.5 127.13 327.74 127.13 329.52 122.08 332.43 122.06 325.45 127 322.59" style="fill:#fff"></polygon></g><g id="freepik--Character--inject-7"><path d="M318.75,290.32c-8.52,5.92-18.12,10-25.23,17.95-13.3,14.81-13.61,38.66-3.17,55.6S320.21,391,340,393.34c20.74,2.44,42.5-3.29,58.78-16.38s26.62-33.55,26.61-54.43-10.7-41.68-28.19-53.09c-16-10.41-38.9-13.38-54.91-1.47-8.1,6-13.49,14.91-21.57,20.95C320.06,289.4,319.41,289.86,318.75,290.32Z" style="fill:#37474f"></path><path d="M318.75,290.32c-8.52,5.92-18.12,10-25.23,17.95-13.3,14.81-13.61,38.66-3.17,55.6S320.21,391,340,393.34c20.74,2.44,42.5-3.29,58.78-16.38s26.62-33.55,26.61-54.43-10.7-41.68-28.19-53.09c-16-10.41-38.9-13.38-54.91-1.47-8.1,6-13.49,14.91-21.57,20.95C320.06,289.4,319.41,289.86,318.75,290.32Z" style="opacity:0.2"></path><path d="M318.75,290.32c-8.52,5.92-18.12,10-25.23,17.95-13.3,14.81-13.61,38.66-3.17,55.6S320.21,391,340,393.34c20.74,2.44,42.5-3.29,58.78-16.38s26.62-33.55,26.61-54.43-10.7-41.68-28.19-53.09c-16-10.41-38.9-13.38-54.91-1.47-8.1,6-13.49,14.91-21.57,20.95C320.06,289.4,319.41,289.86,318.75,290.32Z" style="fill:#fff;opacity:0.1"></path><path d="M322.22,377.14l.06-.42A22.43,22.43,0,0,1,340.46,358a70.71,70.71,0,0,0,23.28-8.92c5.09-3.07,9.89-6.84,15.6-8.51a25.4,25.4,0,0,1,16.81,1c-4.79-5-13-7.26-19.59-5,4.55-7,8.55-14.46,10.12-22.63s.46-17.13-4.47-23.83a24,24,0,0,0-37-2c-4.88,5.34-7.63,12.84-10.83,19.32-2.31,4.66-4.68,9.42-8.48,13-5.72,5.35-13.95,7.28-19.88,12.4-6.73,5.81-9.63,15.09-9.66,24a70.76,70.76,0,0,0,2.6,17.73,67.33,67.33,0,0,0,24.33,14.87A26.42,26.42,0,0,1,322.22,377.14Z" style="opacity:0.1"></path><g style="opacity:0.2"><path d="M414.24,319.66a61,61,0,0,0-52-59.18,44.82,44.82,0,0,0-5.88,1,59.42,59.42,0,0,1,56.27,58.22c.38,19.44-9.12,39.25-25.43,53-12.78,10.78-29.76,17.92-48.42,20.49l1.2.16c1.67.19,3.36.33,5,.42,16.57-3.21,31.59-10.05,43.2-19.84C404.91,359.86,414.63,339.58,414.24,319.66Z" style="fill:#fff"></path></g><path d="M300.5,370.65a59.33,59.33,0,0,1,1,9.7l2.3-.87a5.94,5.94,0,0,1,6.39,1.45l.12.12a2.31,2.31,0,0,0,3.19.15h0a2.32,2.32,0,0,0,.8-1.67l.31-9.8Z" style="fill:#ffa8a7"></path><path d="M309.38,407c-4.77,5.11-13.56,9.58-19.95,5.22l.71,1.63c6.39,4.35,15.18-.11,20-5.22s1.68-8.65,6-13.18a15.51,15.51,0,0,0,3.72-5.52c-.19-.48-.38-1.12-.6-1.85a19.76,19.76,0,0,1-3.83,5.75C311.06,398.4,314.16,401.94,309.38,407Z" style="fill:#f5f5f5"></path><path d="M316.84,382.78a9.48,9.48,0,0,1-1.51-3.48,2,2,0,0,0-.94-1.42l-.05,1.65a2.32,2.32,0,0,1-4,1.52l-.12-.12a5.94,5.94,0,0,0-6.39-1.45l-2.34.88a1.8,1.8,0,0,0-1.16,1.72c.15,6.7-3,15.59-6.26,20.48-3.37,1.4-6.29,6-4.8,9.36l.15.34c6.39,4.36,15.18-.11,19.95-5.22s1.68-8.64,6-13.17a19.76,19.76,0,0,0,3.83-5.75A21.3,21.3,0,0,0,316.84,382.78Z" style="fill:#455a64"></path><path d="M307.49,392.45a.82.82,0,0,0,1.09-.36.8.8,0,0,0-.33-1.08,9.34,9.34,0,0,0-9.18,0c-.14.53-.29,1.05-.45,1.57A9,9,0,0,1,307.49,392.45Z" style="fill:#fff"></path><path d="M308.67,388.83a.82.82,0,0,0,.75-1.45,9.81,9.81,0,0,0-9.54.08c-.1.55-.21,1.09-.33,1.64C302.33,387.63,305.14,387.05,308.67,388.83Z" style="fill:#fff"></path><path d="M306.2,396.06a.82.82,0,0,0,1.09-.37.81.81,0,0,0-.34-1.08,9.29,9.29,0,0,0-9-.09c-.2.57-.42,1.12-.64,1.67A9,9,0,0,1,306.2,396.06Z" style="fill:#fff"></path><path d="M294.08,402.56c-3.37,1.4-6.29,6-4.8,9.36l.15.34c6.29,4.29,14.91,0,19.73-5C305.14,399.39,296.74,401.35,294.08,402.56Z" style="fill:#fff"></path><path d="M304.79,399.58a.82.82,0,0,0,.75-1.45,9.29,9.29,0,0,0-9-.08c-.29.62-.58,1.22-.88,1.8C298.45,398.38,301.26,397.79,304.79,399.58Z" style="fill:#fff"></path><path d="M290.46,390.12a59.55,59.55,0,0,1-3,9.29l2.45.14a6,6,0,0,1,5.27,3.91l0,.15a2.33,2.33,0,0,0,2.87,1.43h0a2.36,2.36,0,0,0,1.4-1.21l4.23-8.84Z" style="fill:#ffa8a7"></path><path d="M283.9,427c-6.43,2.75-16.28,3.29-20.36-3.28v1.78c4.08,6.56,13.93,6,20.36,3.28s5-7.23,10.78-9.64a15.63,15.63,0,0,0,5.63-3.55c0-.53.11-1.18.2-1.94a19.41,19.41,0,0,1-5.83,3.71C288.92,419.77,290.33,424.26,283.9,427Z" style="fill:#f5f5f5"></path><path d="M300.51,407.82a9.32,9.32,0,0,1,0-3.8,2,2,0,0,0-.29-1.68l-.71,1.49a2.36,2.36,0,0,1-1.4,1.21,2.33,2.33,0,0,1-2.87-1.43l0-.15a6,6,0,0,0-5.27-3.91l-2.49-.14a1.8,1.8,0,0,0-1.76,1.1c-2.57,6.19-9,13.07-14,16.22-3.65-.09-8.17,2.94-8.17,6.63v.36c4.08,6.57,13.93,6,20.36,3.28s5-7.23,10.78-9.64a19.41,19.41,0,0,0,5.83-3.71A20.85,20.85,0,0,0,300.51,407.82Z" style="fill:#455a64"></path><path d="M288.06,412.89a.81.81,0,0,0,1.27-1,9.33,9.33,0,0,0-8.4-3.69q-.51.65-1.05,1.26A9,9,0,0,1,288.06,412.89Z" style="fill:#fff"></path><path d="M290.6,410.05a.81.81,0,0,0,1.14.11.82.82,0,0,0,.13-1.13,9.79,9.79,0,0,0-8.76-3.78c-.31.46-.64.92-1,1.37C285.28,406.4,288.09,407,290.6,410.05Z" style="fill:#fff"></path><path d="M285.43,415.67a.81.81,0,0,0,1.27-1,9.32,9.32,0,0,0-8.18-3.71c-.41.44-.83.86-1.26,1.27A9,9,0,0,1,285.43,415.67Z" style="fill:#fff"></path><path d="M271.71,416.73c-3.65-.09-8.17,2.94-8.17,6.63v.36c4,6.47,13.63,6,20.06,3.4C283.11,418.29,274.63,416.69,271.71,416.73Z" style="fill:#fff"></path><path d="M282.71,418.32a.82.82,0,0,0,1.14.1.8.8,0,0,0,.13-1.12,9.3,9.3,0,0,0-8.19-3.71c-.51.46-1,.89-1.53,1.29C277.4,414.66,280.2,415.26,282.71,418.32Z" style="fill:#fff"></path><path d="M328.24,306.48l-32.19,17.93a16,16,0,0,0-7.92,16.84l6.25,33.65-5.12,16.27c4.42,5.93,14.56,6.23,14.56,6.23,5.66-11.35,9.82-16.17,13-25.68s5.36-16.08,5.36-16.08l26.73-7.3a31.67,31.67,0,0,0,23.16-26.95c.46-4.05.48-6.81.48-6.81Z" style="fill:#FFCD00"></path><path d="M328.24,306.48l-32.19,17.93a16,16,0,0,0-7.92,16.84l6.25,33.65-5.12,16.27c4.42,5.93,14.56,6.23,14.56,6.23,5.66-11.35,9.82-16.17,13-25.68s5.36-16.08,5.36-16.08l26.73-7.3a31.67,31.67,0,0,0,23.16-26.95c.46-4.05.48-6.81.48-6.81Z" style="opacity:0.30000000000000004"></path><path d="M328.24,306.48l-32.19,17.93a16,16,0,0,0-7.92,16.84l6.25,33.65-5.12,16.27c4.42,5.93,14.56,6.23,14.56,6.23,5.66-11.35,9.82-16.17,13-25.68s5.36-16.08,5.36-16.08l26.73-7.3a31.67,31.67,0,0,0,23.16-26.95c.46-4.05.48-6.81.48-6.81Z" style="fill:#fff;opacity:0.1"></path><path d="M328.48,315.52a15.19,15.19,0,0,0,3.6,9.81l-22.71,14.22a16.31,16.31,0,0,0-6.95,9.06l-8,26.29,7.25-29.28a13.28,13.28,0,0,1,5.91-8.1l21-13C326.36,319.2,328.48,315.52,328.48,315.52Z" style="opacity:0.2"></path><path d="M306.94,269.52l-7.24,6.54c-4.63-5.91-10.84-9.9-16.27-18.18-1.56-2-1.4-5.93-2.46-7.95-.84-1.58-2.3-4-2.91-5.29a.88.88,0,0,0-1.33-.35c-1.49,1.14-.68,3.8.12,6.59.95,3.3-4-1.17-4.7-1.93-3.16-2.94-5.87-10.15-8-9.43s-.45,4.31-.45,4.31c-2,.42-1.23,3.58-1.23,3.58-1.17,2.07-.84,5.26,1.57,8.23,1.75,2.15,6.48,5.11,8.94,6.56a8.1,8.1,0,0,1,2.56,2.42L291,287.68a9.29,9.29,0,0,0,13.26,2.25l10.53-7.88Z" style="fill:#ffa8a7"></path><path d="M306.94,269.52l-7.24,6.54c-4.63-5.91-10.84-9.9-16.27-18.18-1.56-2-1.4-5.93-2.46-7.95-.84-1.58-2.3-4-2.91-5.29a.88.88,0,0,0-1.33-.35c-1.49,1.14-.68,3.8.12,6.59.95,3.3-4-1.17-4.7-1.93-3.16-2.94-5.87-10.15-8-9.43s-.45,4.31-.45,4.31c-2,.42-1.23,3.58-1.23,3.58-1.17,2.07-.84,5.26,1.57,8.23,1.75,2.15,6.48,5.11,8.94,6.56a8.1,8.1,0,0,1,2.56,2.42L291,287.68a9.29,9.29,0,0,0,13.26,2.25l10.53-7.88Z" style="opacity:0.30000000000000004"></path><path d="M330.37,251.41c-7.86-.34-18.29,11.32-25,18.31a25.76,25.76,0,0,0,8.78,14.07A190.52,190.52,0,0,0,330.37,271Z" style="fill:#455a64"></path><path d="M330.37,251.41c-7.86-.34-18.29,11.32-25,18.31a25.76,25.76,0,0,0,8.78,14.07A190.52,190.52,0,0,0,330.37,271Z" style="fill:#fff;opacity:0.30000000000000004"></path><path d="M373.09,317.09c-5.71,5.49-33.13,6.5-47.12-6.82,1.34-9.41.89-19.48,0-29.44s-6.72-27.39,4.4-29.42c14.85-2.9,24.55-2.67,34.48,2.92C375.44,272,374,298.4,373.09,317.09Z" style="fill:#455a64"></path><path d="M373.09,317.09c-5.71,5.49-33.13,6.5-47.12-6.82,1.34-9.41.89-19.48,0-29.44s-6.72-27.39,4.4-29.42c14.85-2.9,24.55-2.67,34.48,2.92C375.44,272,374,298.4,373.09,317.09Z" style="fill:#455a64"></path><path d="M373.09,317.09c-5.71,5.49-33.13,6.5-47.12-6.82,1.34-9.41.89-19.48,0-29.44s-6.72-27.39,4.4-29.42c14.85-2.9,24.55-2.67,34.48,2.92C375.44,272,374,298.4,373.09,317.09Z" style="fill:#fff;opacity:0.2"></path><path d="M351,328.92a1.26,1.26,0,0,1,0,.43,0,0,0,0,1,0,0,1.25,1.25,0,0,1-.16.33l0,0a2.21,2.21,0,0,1-.29.33l0,0a3.1,3.1,0,0,1-.44.31l-23.55,13.68a3.79,3.79,0,0,1-.68.3l-.26.08-.34.09-.42.07h-.1l-.57,0H324a5.12,5.12,0,0,1-.56,0h-.09a4.85,4.85,0,0,1-.55-.09l-.1,0-.47-.14-.09,0a3.11,3.11,0,0,1-.52-.25l-38.86-22.43a3.1,3.1,0,0,1-.44-.31l-.11-.12a2.05,2.05,0,0,1-.2-.23,1.09,1.09,0,0,1-.08-.15.91.91,0,0,1-.11-.22.76.76,0,0,1,0-.16,1.43,1.43,0,0,1,0-.22v1.38a1.43,1.43,0,0,0,0,.22.74.74,0,0,0,.14.38,1.09,1.09,0,0,0,.08.15,1.37,1.37,0,0,0,.2.22,1.31,1.31,0,0,0,.11.12,2.49,2.49,0,0,0,.44.32l38.86,22.43a3.11,3.11,0,0,0,.52.25l.09,0,.47.14.1,0a4.85,4.85,0,0,0,.55.09h.09a5.12,5.12,0,0,0,.56,0h.1l.57,0h.1l.42-.08.34-.08.26-.08a3.79,3.79,0,0,0,.68-.3L350,331.77a3.07,3.07,0,0,0,.44-.3,0,0,0,0,1,0,0,2.86,2.86,0,0,0,.29-.33l0,0a1.25,1.25,0,0,0,.16-.33,0,0,0,0,0,0,0,1.16,1.16,0,0,0,0-.32h0v-1.5Z" style="fill:#e0e0e0"></path><path d="M351,328.92a1.26,1.26,0,0,1,0,.43,0,0,0,0,1,0,0,1.25,1.25,0,0,1-.16.33l0,0a2.21,2.21,0,0,1-.29.33l0,0a3.1,3.1,0,0,1-.44.31l-23.55,13.68a3.79,3.79,0,0,1-.68.3l-.26.08-.34.09-.42.07h-.1l-.57,0H324a5.12,5.12,0,0,1-.56,0h-.09a4.85,4.85,0,0,1-.55-.09l-.1,0-.47-.14-.09,0a3.11,3.11,0,0,1-.52-.25l-38.86-22.43a3.1,3.1,0,0,1-.44-.31l-.11-.12a2.05,2.05,0,0,1-.2-.23,1.09,1.09,0,0,1-.08-.15.91.91,0,0,1-.11-.22.76.76,0,0,1,0-.16,1.43,1.43,0,0,1,0-.22v1.38a1.43,1.43,0,0,0,0,.22.74.74,0,0,0,.14.38,1.09,1.09,0,0,0,.08.15,1.37,1.37,0,0,0,.2.22,1.31,1.31,0,0,0,.11.12,2.49,2.49,0,0,0,.44.32l38.86,22.43a3.11,3.11,0,0,0,.52.25l.09,0,.47.14.1,0a4.85,4.85,0,0,0,.55.09h.09a5.12,5.12,0,0,0,.56,0h.1l.57,0h.1l.42-.08.34-.08.26-.08a3.79,3.79,0,0,0,.68-.3L350,331.77a3.07,3.07,0,0,0,.44-.3,0,0,0,0,1,0,0,2.86,2.86,0,0,0,.29-.33l0,0a1.25,1.25,0,0,0,.16-.33,0,0,0,0,0,0,0,1.16,1.16,0,0,0,0-.32h0v-1.5Z" style="opacity:0.2"></path><path d="M281.77,320.62a.91.91,0,0,0,.11.22,1.09,1.09,0,0,0,.08.15,2.05,2.05,0,0,0,.2.23l.11.12a3.1,3.1,0,0,0,.44.31l38.86,22.43a3.11,3.11,0,0,0,.52.25l.09,0,.47.14.1,0a4.85,4.85,0,0,0,.55.09h.09a5.12,5.12,0,0,0,.56,0h.1l.57,0h.1l.42-.07.34-.09.26-.08a3.79,3.79,0,0,0,.68-.3L350,330.4a3.1,3.1,0,0,0,.44-.31l0,0a2.21,2.21,0,0,0,.29-.33l0,0a1.25,1.25,0,0,0,.16-.33,0,0,0,0,0,0,0,1.26,1.26,0,0,0,0-.43,1.75,1.75,0,0,0-1-1.33l-38.86-22.43a5.28,5.28,0,0,0-4.83,0L282.7,318.84a1.73,1.73,0,0,0-1,1.4,1.43,1.43,0,0,0,0,.22A.76.76,0,0,0,281.77,320.62Z" style="fill:#e0e0e0"></path><path d="M285,320.24,322.76,342l.14.07.09,0,.29.09.21,0h.14l.37,0h0a2.75,2.75,0,0,0,.39,0l.25,0,.3-.08a1.19,1.19,0,0,0,.26-.11L337.38,335l-39-22.51Z" style="fill:#e0e0e0"></path><path d="M324,342.3h0Z" style="fill:#263238"></path><path d="M320.92,314.25l-7.1,4.18a.71.71,0,0,0,0,1.24l10.62,6.13a1.18,1.18,0,0,0,1.19,0l7.1-4.17a.72.72,0,0,0,0-1.24l-10.62-6.14A1.18,1.18,0,0,0,320.92,314.25Z" style="fill:#e0e0e0"></path><path d="M285,320.24,322.76,342l.14.07.09,0,.29.09.21,0h.14l.37,0h0a2.75,2.75,0,0,0,.39,0l.25,0,.3-.08a1.19,1.19,0,0,0,.26-.11L337.38,335l-39-22.51Z" style="opacity:0.4"></path><path d="M320.92,314.25l-7.1,4.18a.71.71,0,0,0,0,1.24l10.62,6.13a1.18,1.18,0,0,0,1.19,0l7.1-4.17a.72.72,0,0,0,0-1.24l-10.62-6.14A1.18,1.18,0,0,0,320.92,314.25Z" style="opacity:0.4"></path><path d="M323.76,342.69l-4-25.58a4.7,4.7,0,0,0-2.29-3.35L278.32,291a1.17,1.17,0,0,0-1-.07h0l-.93.46.31.12a1.14,1.14,0,0,0-.1.69l4,25.59a4.7,4.7,0,0,0,2.29,3.34L322,343.89a1.45,1.45,0,0,0,.26.11l0,.37.9-.44h0A1.17,1.17,0,0,0,323.76,342.69Z" style="fill:#e0e0e0"></path><path d="M323.76,342.69l-4-25.58a4.7,4.7,0,0,0-2.29-3.35L278.32,291a1.17,1.17,0,0,0-1-.07h0l-.93.46.31.12a1.14,1.14,0,0,0-.1.69l4,25.59a4.7,4.7,0,0,0,2.29,3.34L322,343.89a1.45,1.45,0,0,0,.26.11l0,.37.9-.44h0A1.17,1.17,0,0,0,323.76,342.69Z" style="opacity:0.30000000000000004"></path><path d="M316.66,314.15,277.53,291.4a1.18,1.18,0,0,0-1.76,1.21l4,25.58a4.78,4.78,0,0,0,2.3,3.35l39.13,22.75a1.18,1.18,0,0,0,1.76-1.21l-4-25.58A4.74,4.74,0,0,0,316.66,314.15Z" style="fill:#e0e0e0"></path><path d="M297.7,314.81a8.66,8.66,0,0,1,3.88,5.6c.26,2-1.06,2.74-3,1.64a8.64,8.64,0,0,1-3.88-5.59C294.48,314.46,295.81,313.73,297.7,314.81Z" style="fill:#fff"></path><path d="M382.05,298.34l-4.2-15.62L363.12,286l3.53,12.11-21.59,15.33-7.26,3.06a11.4,11.4,0,0,0-4.81,3.82l-5.92,8.2a.68.68,0,0,0-.06.35,1.13,1.13,0,0,0,2,.54c1.31-1.5,2.41-2.89,3.78-4.2l-3.49,4.71a1.41,1.41,0,0,0,.44,2,5.42,5.42,0,0,0,1.26.55,5.32,5.32,0,0,0,4.9-1.23l4.57-4.19,1.26-.44a19.14,19.14,0,0,0,9.18-6.89l25.31-9.83A9.67,9.67,0,0,0,382.05,298.34Z" style="fill:#ffa8a7"></path><path d="M382.05,298.34l-4.2-15.62L363.12,286l3.53,12.11-21.59,15.33-7.26,3.06a11.4,11.4,0,0,0-4.81,3.82l-5.92,8.2a.68.68,0,0,0-.06.35,1.13,1.13,0,0,0,2,.54c1.31-1.5,2.41-2.89,3.78-4.2l-3.49,4.71a1.41,1.41,0,0,0,.44,2,5.42,5.42,0,0,0,1.26.55,5.32,5.32,0,0,0,4.9-1.23l4.57-4.19,1.26-.44a19.14,19.14,0,0,0,9.18-6.89l25.31-9.83A9.67,9.67,0,0,0,382.05,298.34Z" style="opacity:0.30000000000000004"></path><path d="M380.16,284.76l-.45-2.07c-5.35-24.32-9.62-26.05-16.79-29.38-7,6.08-5.81,16.42-5.81,16.42l6.25,18.71.19.54A21.75,21.75,0,0,0,380.16,284.76Z" style="fill:#455a64"></path><path d="M380.16,284.76l-.45-2.07c-5.35-24.32-9.62-26.05-16.79-29.38-7,6.08-5.81,16.42-5.81,16.42l6.25,18.71.19.54A21.75,21.75,0,0,0,380.16,284.76Z" style="fill:#fff;opacity:0.30000000000000004"></path><path d="M352.94,233.85a44.24,44.24,0,0,0,2.33-13.68c0-2.48-.25-5.19-2-7-2.09-2.14-5.67-2.12-8.34-.77s-4.63,3.74-6.51,6.06a54.93,54.93,0,0,0,4.12,11.72c.94,1.82,2.08,3.67,3.9,4.6S351.32,235.11,352.94,233.85Z" style="fill:#455a64"></path><path d="M339.73,262.42c-3.59,2.27-8.25-1.94-4.08-8.08a.22.22,0,0,0,.05-.11V244l13.54-7.47.31,13.67C348.1,254.43,342.85,260.44,339.73,262.42Z" style="fill:#ffa8a7"></path><path d="M339.73,262.42c-3.59,2.27-8.25-1.94-4.08-8.08a.22.22,0,0,0,.05-.11V244l13.54-7.47.31,13.67C348.1,254.43,342.85,260.44,339.73,262.42Z" style="opacity:0.30000000000000004"></path><path d="M342.67,247.27c-2.26,1.09-5.08,2.19-7,2.9V244l13.54-7.47C349.13,243.3,346.43,245.45,342.67,247.27Z" style="opacity:0.2"></path><path d="M323.88,217.76a114.86,114.86,0,0,0,.28,20.23A10,10,0,0,0,336,246.81c2.22-.46,4.34-1,6.14-1.47a9.23,9.23,0,0,0,6.56-6.76l.5-2.08a4.25,4.25,0,0,0,5.12,1.2,5.73,5.73,0,0,0,3.25-4.41,5.3,5.3,0,0,0-.24-2.79,3.67,3.67,0,0,0-1.88-2,4.09,4.09,0,0,0-4.51,1.29,8.68,8.68,0,0,0-1.82,4.6,14.19,14.19,0,0,1-3.56-10.24,5.11,5.11,0,0,1-3.28-1.68,4.46,4.46,0,0,1-.84-3.33C336.15,221.79,328.85,221.07,323.88,217.76Z" style="fill:#ffa8a7"></path><path d="M323.88,217.76a114.86,114.86,0,0,0,.28,20.23A10,10,0,0,0,336,246.81c2.22-.46,4.34-1,6.14-1.47a9.23,9.23,0,0,0,6.56-6.76l.5-2.08a4.25,4.25,0,0,0,5.12,1.2,5.73,5.73,0,0,0,3.25-4.41,5.3,5.3,0,0,0-.24-2.79,3.67,3.67,0,0,0-1.88-2,4.09,4.09,0,0,0-4.51,1.29,8.68,8.68,0,0,0-1.82,4.6,14.19,14.19,0,0,1-3.56-10.24,5.11,5.11,0,0,1-3.28-1.68,4.46,4.46,0,0,1-.84-3.33C336.15,221.79,328.85,221.07,323.88,217.76Z" style="opacity:0.30000000000000004"></path><polygon points="333.33 229.08 328.63 234.78 332.95 236.3 333.33 229.08" style="fill:#f28f8f"></polygon><polygon points="333.33 229.08 328.63 234.78 332.95 236.3 333.33 229.08" style="opacity:0.30000000000000004"></polygon><path d="M336.89,239.13l-3.63,1.11a2.24,2.24,0,0,0,2.45,1.13A2,2,0,0,0,336.89,239.13Z" style="fill:#f28f8f"></path><path d="M336.89,239.13l-3.63,1.11a2.24,2.24,0,0,0,2.45,1.13A2,2,0,0,0,336.89,239.13Z" style="opacity:0.4"></path><path d="M334.52,241.3a2.11,2.11,0,0,0,1.19.07,1.83,1.83,0,0,0,1.18-1.64,2.22,2.22,0,0,0-1.41.25A2.18,2.18,0,0,0,334.52,241.3Z" style="fill:#f28f8f"></path><path d="M339.73,230.33a1.29,1.29,0,1,1-1.22-1.36A1.29,1.29,0,0,1,339.73,230.33Z" style="fill:#263238"></path><path d="M328.93,229.33a1.29,1.29,0,1,1-1.22-1.35A1.29,1.29,0,0,1,328.93,229.33Z" style="fill:#263238"></path><path d="M328,224.14,325,226a1.85,1.85,0,0,1,.67-2A2.16,2.16,0,0,1,328,224.14Z" style="fill:#263238"></path><path d="M339,224.57l2.76,2.13a1.86,1.86,0,0,0-.45-2A2.23,2.23,0,0,0,339,224.57Z" style="fill:#263238"></path><path d="M342.06,218.68a4.48,4.48,0,0,1-1.24,2.41,3.52,3.52,0,0,1-2.54,1,2.8,2.8,0,0,1-2.34-1.35,3.31,3.31,0,0,1-3.05,1.35,3.67,3.67,0,0,1-2.94-1.92,3.48,3.48,0,0,1-3.62,1.42,3.33,3.33,0,0,1-2.47-2.89,4.33,4.33,0,0,1-3.23-.46,3.19,3.19,0,0,1-1.54-2.8,2.56,2.56,0,0,1,2-2.35,3.36,3.36,0,0,1,.84-4A3.29,3.29,0,0,1,326,209a2.59,2.59,0,0,1,1.53-2.29,2.55,2.55,0,0,1,2.7.52,4.07,4.07,0,0,1,7.55-1.63,3.52,3.52,0,0,1,3.28-1.75,3.29,3.29,0,0,1,2.84,2.17,4.08,4.08,0,0,1,7.48,2,2.52,2.52,0,0,1,3.47.2,3.15,3.15,0,0,1,.29,3.61,4.16,4.16,0,0,1-3.18,1.93,3.28,3.28,0,0,1-5.64,3.23,2.43,2.43,0,0,1-1.55,2.58A2.27,2.27,0,0,1,342.06,218.68Z" style="fill:#263238"></path></g></svg>