<svg xmlns="http://www.w3.org/2000/svg" viewBox="0 0 500 500"><g id="freepik--Character--inject-221"><path d="M329.06,374h0l2.62,1.67.06,0h0a3,3,0,0,0,2.95-.31,9.23,9.23,0,0,0,4.18-7.24,2.93,2.93,0,0,0-1.18-2.65h0l0,0,0,0-.77-.49,25.09-10.19a1.85,1.85,0,0,0,.95,1.46l-2.26,19.73v2.68a9.33,9.33,0,0,0-3.46,6.73,2.87,2.87,0,0,0,1.31,2.72h0l2.63,1.67.05,0h0a3,3,0,0,0,2.95-.3,9.2,9.2,0,0,0,4.18-7.24,3,3,0,0,0-1.17-2.65h0l0,0,0,0-2.66-1.68h0a2.24,2.24,0,0,0-1.39-.31L365.87,357h0a6.15,6.15,0,0,0,1.83-.3h0l23.76,12.84-1.36.86,0,0,0,0h0a2.93,2.93,0,0,0-1.18,2.65,9.23,9.23,0,0,0,4.18,7.24,3,3,0,0,0,3,.31h0l.06,0,2.62-1.67h0a2.85,2.85,0,0,0,1.31-2.72,9.31,9.31,0,0,0-3.4-6.69v-4.14l-22.13-13.15,11.67-2.94a8.43,8.43,0,0,0-1.24,4.15,2.85,2.85,0,0,0,1.3,2.72h0l2.62,1.67.05,0h0a2.94,2.94,0,0,0,3-.31,9.22,9.22,0,0,0,4.18-7.23,3,3,0,0,0-1.18-2.65h0l0,0a.05.05,0,0,1,0,0L392.07,346h0a2.45,2.45,0,0,0-2-.19v-.67l-1.42-.48-19,1v-3.35a5.34,5.34,0,0,0,.59-.28,3.2,3.2,0,0,0,1.88-2.6V317.47H359.46v21.92a3.15,3.15,0,0,0,1.85,2.6,5.92,5.92,0,0,0,.62.3v2.81l-13.7-3-.65.27v2.52h0l-2.66,1.69,0,0,0,0h0a3,3,0,0,0-1.17,2.65,9.06,9.06,0,0,0,2.06,5.34l-13.23,6v3.13a4.65,4.65,0,0,0-.55.27,9.21,9.21,0,0,0-4.18,7.23A2.85,2.85,0,0,0,329.06,374ZM337,359.82l9.59-4.27h0l-13,5.77Zm17-10.78,1.94,1-1.34.6A10.46,10.46,0,0,0,353.91,349Zm8-.35-7.22,3.21h0Z" style="fill:#e0e0e0"></path><path d="M392.69,351.28l2.1-3.59L392.07,346h0a2.92,2.92,0,0,0-3,.26,9.18,9.18,0,0,0-4.17,7.23,2.85,2.85,0,0,0,1.3,2.72h0l2.68,1.7,2.21-3.79A9.91,9.91,0,0,0,392.69,351.28Z" style="fill:#37474f"></path><path d="M391.76,348c2.31-1.34,4.2-.27,4.21,2.39a9.22,9.22,0,0,1-4.18,7.23c-2.31,1.34-4.2.27-4.21-2.39A9.22,9.22,0,0,1,391.76,348Z" style="fill:#455a64"></path><path d="M346.92,350.26l-2.1-3.6,2.73-1.73h0a2.9,2.9,0,0,1,3,.25,9.25,9.25,0,0,1,4.18,7.23,2.89,2.89,0,0,1-1.31,2.73h0l-2.68,1.71-2.21-3.79A10.15,10.15,0,0,1,346.92,350.26Z" style="fill:#37474f"></path><path d="M347.85,346.92c-2.31-1.33-4.2-.27-4.2,2.39a9.22,9.22,0,0,0,4.17,7.24c2.32,1.33,4.2.26,4.21-2.4A9.21,9.21,0,0,0,347.85,346.92Z" style="fill:#455a64"></path><path d="M361.93,341.35h7.78v13.4h0a2,2,0,0,1-1.15,1.59,6.06,6.06,0,0,1-5.5,0,2,2,0,0,1-1.13-1.59h0Z" style="fill:#ebebeb"></path><polygon points="390.08 345.1 390.08 348.3 369.71 353.43 369.71 346.67 390.08 345.1" style="fill:#e0e0e0"></polygon><polygon points="390.08 345.1 388.66 344.62 369.71 345.62 369.71 346.67 390.08 345.1" style="fill:#f5f5f5"></polygon><path d="M392.13,374.06l-2.1-3.6,2.72-1.73h0a2.88,2.88,0,0,1,3,.25,9.18,9.18,0,0,1,4.18,7.23,2.85,2.85,0,0,1-1.31,2.72h0L396,380.66l-2.21-3.79A9.91,9.91,0,0,1,392.13,374.06Z" style="fill:#37474f"></path><path d="M393.06,370.72c-2.32-1.34-4.2-.27-4.21,2.39a9.23,9.23,0,0,0,4.18,7.24c2.31,1.33,4.2.26,4.2-2.4A9.2,9.2,0,0,0,393.06,370.72Z" style="fill:#455a64"></path><path d="M365,383.19l2.1-3.6-2.73-1.73h0a2.9,2.9,0,0,0-3,.25,9.2,9.2,0,0,0-4.18,7.23,2.87,2.87,0,0,0,1.31,2.72h0l2.68,1.71,2.21-3.79A9.94,9.94,0,0,0,365,383.19Z" style="fill:#37474f"></path><path d="M364.07,379.85c2.31-1.34,4.19-.27,4.2,2.39a9.2,9.2,0,0,1-4.18,7.24c-2.31,1.33-4.19.26-4.2-2.4A9.17,9.17,0,0,1,364.07,379.85Z" style="fill:#455a64"></path><path d="M335.58,369.08l2.1-3.6L335,363.75h0a2.88,2.88,0,0,0-3,.25,9.21,9.21,0,0,0-4.18,7.23,2.85,2.85,0,0,0,1.31,2.72h0l2.68,1.71,2.21-3.79A9.91,9.91,0,0,0,335.58,369.08Z" style="fill:#37474f"></path><path d="M334.65,365.74c2.32-1.34,4.2-.27,4.21,2.39a9.23,9.23,0,0,1-4.18,7.24c-2.31,1.33-4.2.26-4.2-2.4A9.18,9.18,0,0,1,334.65,365.74Z" style="fill:#455a64"></path><polygon points="394.98 366.27 394.98 371.45 367.7 356.71 367.7 349.57 394.98 366.27" style="fill:#e0e0e0"></polygon><polygon points="396.56 365.39 369.26 349.17 367.7 349.57 394.98 366.27 396.56 365.39" style="fill:#f5f5f5"></polygon><polygon points="396.56 370.56 394.98 371.45 394.98 366.27 396.56 365.39 396.56 370.56" style="fill:#f0f0f0"></polygon><polygon points="365.87 349.57 362.54 375.94 362.54 380.66 365.87 357 365.87 349.57" style="fill:#e0e0e0"></polygon><rect x="360.62" y="375.94" width="1.92" height="4.71" style="fill:#f0f0f0"></rect><polygon points="360.62 375.94 363.64 349.57 365.87 349.57 362.54 375.94 360.62 375.94" style="fill:#f5f5f5"></polygon><polygon points="333.57 361.32 333.57 366.27 361.94 354.75 361.94 348.69 333.57 361.32" style="fill:#e0e0e0"></polygon><polygon points="332.48 365.54 333.57 366.27 333.57 361.32 332.48 360.61 332.48 365.54" style="fill:#f0f0f0"></polygon><polygon points="336.95 359.82 333.57 361.32 332.48 360.61 361.94 347.34 361.94 348.69 336.95 359.82" style="fill:#f5f5f5"></polygon><polygon points="347.58 342.41 347.58 345.65 355.85 350.08 361.94 347.34 361.94 346.01 347.58 342.41" style="fill:#e0e0e0"></polygon><polygon points="347.58 342.41 348.23 342.14 361.94 345.1 361.94 346.01 347.58 342.41" style="fill:#f5f5f5"></polygon><path d="M359.46,317.47h12.72v21.92h0a3.2,3.2,0,0,1-1.88,2.6,9.89,9.89,0,0,1-9,0,3.15,3.15,0,0,1-1.85-2.6h0Z" style="fill:#e0e0e0"></path><path d="M309.36,282.23a8.36,8.36,0,0,0,2.75,2.6l51.83,27.53a12.14,12.14,0,0,0,11.17.11l36.31-18.39a18.39,18.39,0,0,0,9.44-11.6l17.53-64.73c.29.09.58.19.88.27a7.09,7.09,0,0,0,2.28.35h.11l-20.8,76.81a18.39,18.39,0,0,1-9.44,11.6l-36.31,18.39a12.14,12.14,0,0,1-11.17-.11l-51.83-27.53C306.94,294.57,306.45,286.65,309.36,282.23Z" style="fill:#FFBC23"></path><path d="M309.36,282.23a8.36,8.36,0,0,0,2.75,2.6l51.83,27.53a12.14,12.14,0,0,0,11.17.11l36.31-18.39a18.39,18.39,0,0,0,9.44-11.6l17.53-64.73c.29.09.58.19.88.27a7.09,7.09,0,0,0,2.28.35h.11l-20.8,76.81a18.39,18.39,0,0,1-9.44,11.6l-36.31,18.39a12.14,12.14,0,0,1-11.17-.11l-51.83-27.53C306.94,294.57,306.45,286.65,309.36,282.23Z" style="opacity:0.30000000000000004"></path><path d="M311.78,279.89l37.56-19.27,49.46,25.45c-1.61.39-3.25.71-4.87,1-4.25.85-8.59,1.79-12.28,4.07s-6.68,6.16-6.71,10.5l1.32,10.2h0l-1.15.59a12.14,12.14,0,0,1-11.17-.11l-51.83-27.53a8.36,8.36,0,0,1-2.75-2.6A7,7,0,0,1,311.78,279.89Z" style="fill:#FFBC23"></path><path d="M311.78,279.89l37.56-19.27,49.46,25.45c-1.61.39-3.25.71-4.87,1-4.25.85-8.59,1.79-12.28,4.07s-6.68,6.16-6.71,10.5l1.32,10.2h0l-1.15.59a12.14,12.14,0,0,1-11.17-.11l-51.83-27.53a8.36,8.36,0,0,1-2.75-2.6A7,7,0,0,1,311.78,279.89Z" style="opacity:0.2"></path><path d="M317.24,247.67s30.15,8.87,38.13,1c9.92-9.74,5.77-34.29,4.58-43.89s0-16.26,2.66-19.07,6.51-6.94,19-1.77c-12.63,6.5-14.26,37.4-10.27,49.81-9.9,10.19-9.22,26-9.41,33.31,0,0-25.76,6.29-39.21,13.68Z" style="fill:#FFBC23"></path><path d="M317.24,247.67s30.15,8.87,38.13,1c9.92-9.74,5.77-34.29,4.58-43.89s0-16.26,2.66-19.07,6.51-6.94,19-1.77c-12.63,6.5-14.26,37.4-10.27,49.81-9.9,10.19-9.22,26-9.41,33.31,0,0-25.76,6.29-39.21,13.68Z" style="fill:#fff;opacity:0.1"></path><path d="M322.71,280.78l-6.17-3.33c0-17-2.51-15.29-7.18-21.94s2.49-10.79,7.88-7.84S324.81,259.52,322.71,280.78Z" style="fill:#FFBC23"></path><path d="M322.71,280.78l-6.17-3.33c0-17-2.51-15.29-7.18-21.94s2.49-10.79,7.88-7.84S324.81,259.52,322.71,280.78Z" style="fill:#fff;opacity:0.2"></path><path d="M381.6,184s33.77,14.63,50.22,22.76l-1.2,6-53.87-24.45A14.36,14.36,0,0,1,381.6,184Z" style="fill:#FFBC23"></path><path d="M381.6,184s33.77,14.63,50.22,22.76l-1.2,6-53.87-24.45A14.36,14.36,0,0,1,381.6,184Z" style="fill:#fff;opacity:0.1"></path><path d="M371.33,233.79c-3.4-10.59-2.71-34.65,5.42-45.51l53.87,24.45-12.31,61.71L398.8,286.07l-36.88-19C362.11,259.77,361.43,244,371.33,233.79Z" style="fill:#FFBC23"></path><path d="M371.33,233.79c-3.4-10.59-2.71-34.65,5.42-45.51l53.87,24.45-12.31,61.71L398.8,286.07l-36.88-19C362.11,259.77,361.43,244,371.33,233.79Z" style="opacity:0.1"></path><path d="M404.67,246.16c-.91-.52-1.66-.1-1.66,1a3.63,3.63,0,0,0,1.65,2.85c.91.53,1.66.11,1.66-.94A3.66,3.66,0,0,0,404.67,246.16Z" style="fill:#FFBC23"></path><path d="M396.34,241.26c-.92-.52-1.66-.1-1.67,1a3.66,3.66,0,0,0,1.65,2.86c.92.52,1.66.1,1.66-.95A3.63,3.63,0,0,0,396.34,241.26Z" style="fill:#FFBC23"></path><path d="M388,236.37c-.91-.53-1.66-.11-1.66.94a3.66,3.66,0,0,0,1.65,2.86c.91.53,1.66.1,1.66-.95A3.63,3.63,0,0,0,388,236.37Z" style="fill:#FFBC23"></path><path d="M379.66,231.47c-.91-.53-1.65-.11-1.66.94a3.66,3.66,0,0,0,1.65,2.86c.92.53,1.66.1,1.66-1A3.59,3.59,0,0,0,379.66,231.47Z" style="fill:#FFBC23"></path><g style="opacity:0.2"><path d="M404.67,246.16c-.91-.52-1.66-.1-1.66,1a3.63,3.63,0,0,0,1.65,2.85c.91.53,1.66.11,1.66-.94A3.66,3.66,0,0,0,404.67,246.16Z" style="fill:#fff"></path><path d="M396.34,241.26c-.92-.52-1.66-.1-1.67,1a3.66,3.66,0,0,0,1.65,2.86c.92.52,1.66.1,1.66-.95A3.63,3.63,0,0,0,396.34,241.26Z" style="fill:#fff"></path><path d="M388,236.37c-.91-.53-1.66-.11-1.66.94a3.66,3.66,0,0,0,1.65,2.86c.91.53,1.66.1,1.66-.95A3.63,3.63,0,0,0,388,236.37Z" style="fill:#fff"></path><path d="M379.66,231.47c-.91-.53-1.65-.11-1.66.94a3.66,3.66,0,0,0,1.65,2.86c.92.53,1.66.1,1.66-1A3.59,3.59,0,0,0,379.66,231.47Z" style="fill:#fff"></path></g><path d="M381.65,291.18c3.69-2.28,8-3.22,12.28-4.07,1.62-.33,3.26-.65,4.87-1a30.2,30.2,0,0,0,7.53-2.75c6-3.29,9.95-9.44,11.87-16s2-13.46,1.56-20.26-1.25-13.58-1-20.38c.12-4,.72-8.19,3.39-11.11s7.22-3.94,11.26-3.39a22.44,22.44,0,0,1,3.91.91l1.79,2.1-.68,2.53-17.53,64.73a18.37,18.37,0,0,1-8.05,10.8c-.45.28-.91.55-1.39.8l-35.16,17.8-1.32-10.2C375,297.34,378,293.45,381.65,291.18Z" style="fill:#FFBC23"></path><path d="M381.65,291.18c3.69-2.28,8-3.22,12.28-4.07,1.62-.33,3.26-.65,4.87-1a30.2,30.2,0,0,0,7.53-2.75c6-3.29,9.95-9.44,11.87-16s2-13.46,1.56-20.26-1.25-13.58-1-20.38c.12-4,.72-8.19,3.39-11.11s7.22-3.94,11.26-3.39a22.44,22.44,0,0,1,3.91.91l1.79,2.1-.68,2.53-17.53,64.73a18.37,18.37,0,0,1-8.05,10.8c-.45.28-.91.55-1.39.8l-35.16,17.8-1.32-10.2C375,297.34,378,293.45,381.65,291.18Z" style="opacity:0.30000000000000004"></path><path d="M381.6,284.22c12.86-3.66,25.5-4.14,30.15-13.38s5-22,2.66-44.15a34,34,0,0,1,.21-8.58c1.37-8.3,6.36-11.84,12.1-11.93A22.4,22.4,0,0,1,442.1,212a7,7,0,0,1,1.91,2.51,3,3,0,0,1-.38,3,2.94,2.94,0,0,1-2,.89h-.11a7.09,7.09,0,0,1-2.28-.35c-.3-.08-.59-.18-.88-.27-1.58-.49-3.12-1.08-4.73-1.48a10.33,10.33,0,0,0-5.78,0,6.15,6.15,0,0,0-3.72,4.15c-5.42,17.71,1.45,36.74-4.65,51.37-5,13.3-22.23,18.82-34.39,22.77h0a7.46,7.46,0,0,0,3-2.21,5.12,5.12,0,0,0-.48-6.17A6.72,6.72,0,0,0,381.6,284.22Z" style="fill:#FFBC23"></path><path d="M381.6,284.22c12.86-3.66,25.5-4.14,30.15-13.38s5-22,2.66-44.15a34,34,0,0,1,.21-8.58c1.37-8.3,6.36-11.84,12.1-11.93A22.4,22.4,0,0,1,442.1,212a7,7,0,0,1,1.91,2.51,3,3,0,0,1-.38,3,2.94,2.94,0,0,1-2,.89h-.11a7.09,7.09,0,0,1-2.28-.35c-.3-.08-.59-.18-.88-.27-1.58-.49-3.12-1.08-4.73-1.48a10.33,10.33,0,0,0-5.78,0,6.15,6.15,0,0,0-3.72,4.15c-5.42,17.71,1.45,36.74-4.65,51.37-5,13.3-22.23,18.82-34.39,22.77h0a7.46,7.46,0,0,0,3-2.21,5.12,5.12,0,0,0-.48-6.17A6.72,6.72,0,0,0,381.6,284.22Z" style="fill:#fff;opacity:0.1"></path><path d="M372.68,293.32a19.16,19.16,0,0,1,3.29-5.76,9.89,9.89,0,0,1,5.63-3.34,6.72,6.72,0,0,1,6.08,2,5.12,5.12,0,0,1,.48,6.17,7.46,7.46,0,0,1-3,2.21,28.54,28.54,0,0,0-2.83,1.39,12,12,0,0,0-4.86,6.87,36.16,36.16,0,0,0-1.12,8.5l-.05.55-6-3.34A37,37,0,0,1,372.68,293.32Z" style="fill:#FFBC23"></path><path d="M372.68,293.32a19.16,19.16,0,0,1,3.29-5.76,9.89,9.89,0,0,1,5.63-3.34,6.72,6.72,0,0,1,6.08,2,5.12,5.12,0,0,1,.48,6.17,7.46,7.46,0,0,1-3,2.21,28.54,28.54,0,0,0-2.83,1.39,12,12,0,0,0-4.86,6.87,36.16,36.16,0,0,0-1.12,8.5l-.05.55-6-3.34A37,37,0,0,1,372.68,293.32Z" style="fill:#fff;opacity:0.2"></path><path d="M444,214.47A7,7,0,0,0,442.1,212a22.17,22.17,0,0,0-10.37-5.27C415.25,198.56,381.6,184,381.6,184a10.48,10.48,0,0,0-1.27.77,10.48,10.48,0,0,1,1.27-.77c-12.48-5.17-16.33-1-19,1.77s-3.84,9.46-2.66,19.07,5.34,34.15-4.58,43.89c-8,7.83-38.13-1-38.13-1h0c-5.39-2.95-12.56,1.19-7.88,7.84s7.18,5,7.18,21.94l-4.76,2.44a7,7,0,0,0-2.42,2.34c-2.91,4.42-2.42,12.34,2.75,15.29l51.83,27.53a12.14,12.14,0,0,0,11.17.11l36.31-18.39a18.39,18.39,0,0,0,9.44-11.6l20.8-76.81a2.94,2.94,0,0,0,2-.89A3,3,0,0,0,444,214.47Zm-24.45,71.42c-.13.26-.28.51-.42.76C419.28,286.4,419.43,286.15,419.56,285.89Zm-.88,1.55c-.18.28-.37.55-.56.82C418.31,288,418.5,287.72,418.68,287.44ZM378.87,185.93c-.33.3-.65.62-1,.95C378.22,186.55,378.54,186.23,378.87,185.93Zm1.17-1c-.32.24-.63.48-.94.75C379.41,185.44,379.72,185.2,380,185Zm-3.29,3.32c-.24.32-.48.67-.71,1a17.64,17.64,0,0,1,1.74-2.27C377.43,187.42,377.08,187.84,376.75,188.28ZM372,198.49a62.59,62.59,0,0,0-1.9,9.27A62.59,62.59,0,0,1,372,198.49Zm4-9.13c-.23.36-.45.72-.67,1.1C375.54,190.08,375.76,189.72,376,189.36Zm-.68,1.11a36.11,36.11,0,0,0-3.31,8A35.91,35.91,0,0,1,375.31,190.47Zm-5.25,17.47c-.06.48-.11.95-.17,1.42C370,208.89,370,208.42,370.06,207.94Zm-.2,1.73c-.05.45-.09.91-.13,1.37C369.77,210.58,369.81,210.12,369.86,209.67Zm-.16,1.68c0,.47-.08.94-.11,1.4C369.62,212.29,369.66,211.82,369.7,211.35Zm-.11,1.48c-.1,1.46-.16,2.91-.17,4.34C369.43,215.74,369.49,214.29,369.59,212.83Zm-.18,4.88v0ZM371,232.66c0-.13-.07-.27-.1-.4C370.93,232.39,371,232.53,371,232.66Zm-.3-1.23c0-.16-.08-.33-.11-.5C370.62,231.1,370.66,231.27,370.7,231.43Zm-.28-1.31c0-.18-.07-.36-.1-.55C370.35,229.76,370.38,229.94,370.42,230.12Zm-.25-1.4-.09-.57Zm-.21-1.5c0-.18,0-.36-.08-.55C369.91,226.86,369.93,227,370,227.22Zm-.23-1.91c0-.22,0-.44-.05-.66C369.7,224.87,369.71,225.09,369.73,225.31Zm-.14-1.69c0-.25,0-.52,0-.78C369.56,223.1,369.57,223.37,369.59,223.62Zm-.09-1.6c0-.29,0-.58,0-.88C369.47,221.44,369.48,221.73,369.5,222Zm-.06-1.64c0-.31,0-.62,0-.94C369.42,219.76,369.43,220.07,369.44,220.38ZM390.79,282h0L361.92,267.1h0ZM414,292.44c-.39.29-.8.58-1.22.84C413.23,293,413.64,292.73,414,292.44Zm.28-.2c.35-.27.68-.55,1-.84C415,291.69,414.66,292,414.31,292.24Zm1.39-1.18c.29-.28.57-.56.84-.85C416.27,290.5,416,290.78,415.7,291.06Zm2-2.18c-.23.29-.46.57-.7.85C417.21,289.45,417.44,289.17,417.67,288.88Zm2.35-4c.09-.21.19-.42.27-.63C420.21,284.44,420.11,284.65,420,284.86Z" style="opacity:0.1"></path><path d="M353.57,313.89a29.15,29.15,0,0,0,14-12.9c3.05-5.7,4.57-10.72,3.41-17.09l-46.56-18.32c-1.45,13.86-14.18,22.93-14.18,22.93Z" style="fill:#37474f"></path><path d="M302.77,368.54c0,3.75.13,9.24.13,9.24l2.5.14a6.06,6.06,0,0,1,5.38,4l.06.16a2.38,2.38,0,0,0,2.93,1.46h0a2.38,2.38,0,0,0,1.43-1.24L316.4,370Z" style="fill:#ffa8a7"></path><path d="M299.22,406c-6.58,2.81-16.64,3.36-20.82-3.35v1.81c4.18,6.71,14.24,6.16,20.82,3.36s5.13-7.4,11-9.86a16,16,0,0,0,5.75-3.63c0-.53.11-1.21.2-2a19.82,19.82,0,0,1-5.95,3.79C304.35,398.59,305.79,403.17,299.22,406Z" style="fill:#fafafa"></path><path d="M316.19,386.37a9.46,9.46,0,0,1,0-3.88,2.1,2.1,0,0,0-.3-1.72l-.53-.52-.2,2a2.36,2.36,0,0,1-4.36-.22l-.06-.16a6.06,6.06,0,0,0-5.38-4l-2.55-.14a1.81,1.81,0,0,0-1.79,1.12c-2.63,6.33-9.22,13.36-14.3,16.57-3.74-.08-8.36,3-8.36,6.78v.38c4.18,6.71,14.24,6.16,20.82,3.35s5.13-7.39,11-9.86a19.82,19.82,0,0,0,5.95-3.79A21,21,0,0,0,316.19,386.37Z" style="fill:#FFBC23"></path><path d="M316.19,386.37a9.46,9.46,0,0,1,0-3.88,2.1,2.1,0,0,0-.3-1.72l-.53-.52-.2,2a2.36,2.36,0,0,1-4.36-.22l-.06-.16a6.06,6.06,0,0,0-5.38-4l-2.55-.14a1.81,1.81,0,0,0-1.79,1.12c-2.63,6.33-9.22,13.36-14.3,16.57-3.74-.08-8.36,3-8.36,6.78v.38c4.18,6.71,14.24,6.16,20.82,3.35s5.13-7.39,11-9.86a19.82,19.82,0,0,0,5.95-3.79A21,21,0,0,0,316.19,386.37Z" style="opacity:0.2"></path><path d="M316.19,386.37a9.46,9.46,0,0,1,0-3.88,2.1,2.1,0,0,0-.3-1.72l-.53-.52-.2,2a2.36,2.36,0,0,1-4.36-.22l-.06-.16a6.06,6.06,0,0,0-5.38-4l-2.55-.14a1.81,1.81,0,0,0-1.79,1.12c-2.63,6.33-9.22,13.36-14.3,16.57-3.74-.08-8.36,3-8.36,6.78v.38c4.18,6.71,14.24,6.16,20.82,3.35s5.13-7.39,11-9.86a19.82,19.82,0,0,0,5.95-3.79A21,21,0,0,0,316.19,386.37Z" style="fill:#fff;opacity:0.25"></path><path d="M303.47,391.56a.84.84,0,0,0,1.3-1.05,9.52,9.52,0,0,0-8.58-3.77c-.36.44-.71.87-1.08,1.29A9.17,9.17,0,0,1,303.47,391.56Z" style="fill:#fff"></path><path d="M306.06,388.66a.84.84,0,0,0,1.3-1.05,10,10,0,0,0-8.95-3.86c-.32.47-.65.93-1,1.4C300.63,384.92,303.5,385.53,306.06,388.66Z" style="fill:#fff"></path><path d="M300.78,394.39a.81.81,0,0,0,1.16.11.82.82,0,0,0,.14-1.15,9.53,9.53,0,0,0-8.36-3.79c-.43.45-.86.88-1.29,1.3A9.23,9.23,0,0,1,300.78,394.39Z" style="fill:#fff"></path><path d="M286.76,395.47c-3.74-.08-8.36,3-8.36,6.78v.38c4.12,6.61,13.94,6.17,20.51,3.47C298.41,397.07,289.74,395.44,286.76,395.47Z" style="fill:#fff"></path><path d="M298,397.1a.83.83,0,0,0,1.3-1,9.49,9.49,0,0,0-8.37-3.79c-.53.47-1.05.91-1.57,1.32C292.57,393.37,295.44,394,298,397.1Z" style="fill:#fff"></path><path d="M322.32,345.65c-.52,8.31-2.64,14.33-4.27,25.65,0,0-9.94,3-16.14-1.36l-.25-17.44Z" style="fill:#37474f"></path><path d="M267.52,355.85c-.83,3.63-2.49,8.47-2.49,8.47l2.51.14a6.08,6.08,0,0,1,5.38,4l.05.16a2.36,2.36,0,0,0,2.93,1.45h0a2.32,2.32,0,0,0,1.43-1.24l3.78-9.91Z" style="fill:#ffa8a7"></path><path d="M261.35,392.53c-6.58,2.8-16.64,3.35-20.82-3.36V391c4.18,6.71,14.24,6.16,20.82,3.35s5.13-7.39,11-9.86a15.88,15.88,0,0,0,5.75-3.63c0-.53.11-1.2.2-2a20,20,0,0,1-5.95,3.8C266.48,385.13,267.92,389.72,261.35,392.53Z" style="fill:#fafafa"></path><path d="M278.33,372.91a9.3,9.3,0,0,1,0-3.87,2.1,2.1,0,0,0-.3-1.72l-.1-.14-.63,1.65a2.32,2.32,0,0,1-1.43,1.24,2.36,2.36,0,0,1-2.93-1.45l-.05-.16a6.08,6.08,0,0,0-5.38-4l-2.55-.14a1.84,1.84,0,0,0-1.8,1.13c-2.62,6.32-9.22,13.35-14.3,16.57-3.73-.09-8.36,3-8.36,6.78v.37c4.18,6.71,14.24,6.16,20.82,3.36s5.13-7.4,11-9.86a20,20,0,0,0,5.95-3.8A21.33,21.33,0,0,0,278.33,372.91Z" style="fill:#FFBC23"></path><path d="M278.33,372.91a9.3,9.3,0,0,1,0-3.87,2.1,2.1,0,0,0-.3-1.72l-.1-.14-.63,1.65a2.32,2.32,0,0,1-1.43,1.24,2.36,2.36,0,0,1-2.93-1.45l-.05-.16a6.08,6.08,0,0,0-5.38-4l-2.55-.14a1.84,1.84,0,0,0-1.8,1.13c-2.62,6.32-9.22,13.35-14.3,16.57-3.73-.09-8.36,3-8.36,6.78v.37c4.18,6.71,14.24,6.16,20.82,3.36s5.13-7.4,11-9.86a20,20,0,0,0,5.95-3.8A21.33,21.33,0,0,0,278.33,372.91Z" style="opacity:0.2"></path><path d="M278.33,372.91a9.3,9.3,0,0,1,0-3.87,2.1,2.1,0,0,0-.3-1.72l-.1-.14-.63,1.65a2.32,2.32,0,0,1-1.43,1.24,2.36,2.36,0,0,1-2.93-1.45l-.05-.16a6.08,6.08,0,0,0-5.38-4l-2.55-.14a1.84,1.84,0,0,0-1.8,1.13c-2.62,6.32-9.22,13.35-14.3,16.57-3.73-.09-8.36,3-8.36,6.78v.37c4.18,6.71,14.24,6.16,20.82,3.36s5.13-7.4,11-9.86a20,20,0,0,0,5.95-3.8A21.33,21.33,0,0,0,278.33,372.91Z" style="fill:#fff;opacity:0.25"></path><path d="M265.6,378.1a.83.83,0,0,0,1.3-1,9.52,9.52,0,0,0-8.58-3.77c-.35.43-.71.86-1.08,1.28A9.19,9.19,0,0,1,265.6,378.1Z" style="fill:#fff"></path><path d="M268.19,375.2a.85.85,0,0,0,1.17.11.82.82,0,0,0,.13-1.15,10,10,0,0,0-8.95-3.87c-.32.47-.65.94-1,1.4C262.76,371.47,265.63,372.07,268.19,375.2Z" style="fill:#fff"></path><path d="M262.91,380.94a.84.84,0,0,0,1.3-1.05,9.49,9.49,0,0,0-8.36-3.78c-.42.44-.85.88-1.28,1.3A9.17,9.17,0,0,1,262.91,380.94Z" style="fill:#fff"></path><path d="M248.89,382c-3.73-.09-8.36,3-8.36,6.78v.37c4.12,6.61,13.94,6.17,20.52,3.47C260.54,383.61,251.87,382,248.89,382Z" style="fill:#fff"></path><path d="M260.14,383.65a.82.82,0,0,0,1.16.1.81.81,0,0,0,.13-1.15,9.48,9.48,0,0,0-8.37-3.78c-.53.46-1.05.9-1.57,1.32C254.7,379.91,257.57,380.52,260.14,383.65Z" style="fill:#fff"></path><path d="M290.51,336.33c-1.92,8.1-5,13.67-8.54,24.55,0,0-10.31,1.24-15.68-4.07l4.63-28.44Z" style="fill:#37474f"></path><polygon points="165.54 277.85 165.54 363.63 168.57 361.87 168.57 276.09 165.54 277.85" style="fill:#455a64"></polygon><polygon points="165.54 277.85 165.54 363.63 162.51 361.87 162.51 276.09 165.54 277.85" style="fill:#37474f"></polygon><polygon points="168.57 300.72 239.57 259.73 239.57 256.47 168.57 297.46 168.57 300.72" style="fill:#455a64"></polygon><polygon points="168.57 294.02 236.53 254.72 239.57 256.47 168.57 297.46 168.57 294.02" style="fill:#37474f"></polygon><polygon points="379.81 316.16 379.81 401.94 382.85 400.19 382.85 314.41 379.81 316.16" style="fill:#455a64"></polygon><polygon points="379.81 316.16 379.81 401.94 376.78 400.19 376.78 314.41 379.81 316.16" style="fill:#37474f"></polygon><polygon points="305.79 358.92 305.79 444.7 308.82 442.94 308.82 357.16 305.79 358.92" style="fill:#455a64"></polygon><polygon points="305.79 358.92 305.79 444.7 302.75 442.94 302.75 357.16 305.79 358.92" style="fill:#37474f"></polygon><polygon points="308.82 381.79 379.81 340.8 379.81 337.55 308.82 378.53 308.82 381.79" style="fill:#455a64"></polygon><polygon points="308.82 375.09 376.78 335.79 379.81 337.55 308.82 378.53 308.82 375.09" style="fill:#37474f"></polygon><g style="opacity:0.2"><polygon points="379.81 316.16 379.81 401.94 382.85 400.19 382.85 314.41 379.81 316.16" style="fill:#fff"></polygon><polygon points="379.81 316.16 379.81 401.94 376.78 400.19 376.78 314.41 379.81 316.16" style="fill:#fff"></polygon><polygon points="305.79 358.92 305.79 444.7 308.82 442.94 308.82 357.16 305.79 358.92" style="fill:#fff"></polygon><polygon points="305.79 358.92 305.79 444.7 302.75 442.94 302.75 357.16 305.79 358.92" style="fill:#fff"></polygon><polygon points="308.82 381.79 379.81 340.8 379.81 337.55 308.82 378.53 308.82 381.79" style="fill:#fff"></polygon><polygon points="308.82 375.09 376.78 335.79 379.81 337.55 308.82 378.53 308.82 375.09" style="fill:#fff"></polygon></g><g style="opacity:0.2"><polygon points="165.54 277.85 165.54 363.63 168.57 361.87 168.57 276.09 165.54 277.85" style="fill:#fff"></polygon><polygon points="165.54 277.85 165.54 363.63 162.51 361.87 162.51 276.09 165.54 277.85" style="fill:#fff"></polygon><polygon points="168.57 300.72 239.57 259.73 239.57 256.47 168.57 297.46 168.57 300.72" style="fill:#fff"></polygon><polygon points="168.57 294.02 236.53 254.72 239.57 256.47 168.57 297.46 168.57 294.02" style="fill:#fff"></polygon></g><polygon points="305.79 350.63 162.5 268.05 239.56 223.54 382.85 306.13 305.79 350.63" style="fill:#455a64"></polygon><polygon points="305.79 358.92 162.5 276.09 162.5 268.05 305.79 350.63 305.79 358.92" style="fill:#455a64"></polygon><polygon points="305.79 350.63 382.85 306.12 382.85 314.41 305.79 358.92 305.79 350.63" style="fill:#455a64"></polygon><polygon points="305.79 350.63 162.5 268.05 239.56 223.54 382.85 306.13 305.79 350.63" style="fill:#fff;opacity:0.30000000000000004"></polygon><polygon points="305.79 350.63 382.85 306.12 382.85 314.41 305.79 358.92 305.79 350.63" style="fill:#fff;opacity:0.1"></polygon><polygon points="305.79 358.92 162.5 276.09 162.5 268.05 305.79 350.63 305.79 358.92" style="fill:#fff;opacity:0.2"></polygon><polygon points="246.75 243.2 235.26 268.32 205.27 263.67 216.75 238.55 246.75 243.2" style="fill:#e6e6e6"></polygon><polygon points="258.01 248.06 232.04 269.24 206.73 258.81 232.69 237.63 258.01 248.06" style="fill:#f0f0f0"></polygon><polygon points="263.33 240.99 278.88 256.56 240.04 269.54 224.47 253.96 263.33 240.99" style="fill:#fff"></polygon><path d="M240.19,283.42l31.44-18.28a7.14,7.14,0,0,1,6.46,0L330,295.09a2.32,2.32,0,0,1,1.33,1.78h0v2h0a2,2,0,0,1,0,.42s0,0,0,0a2.26,2.26,0,0,1-.22.44l0,0a2.24,2.24,0,0,1-.39.44l0,0a3.76,3.76,0,0,1-.58.42L298.55,319a5.2,5.2,0,0,1-.9.39l-.35.11-.46.11-.56.1-.13,0c-.25,0-.51,0-.77,0h-.12c-.26,0-.51,0-.76,0l-.11,0c-.25,0-.5-.07-.74-.12l-.13,0a5.8,5.8,0,0,1-.63-.2l-.12,0a6.3,6.3,0,0,1-.69-.33L240.21,289a3.43,3.43,0,0,1-.59-.42c-.06-.05-.1-.11-.15-.16a2.44,2.44,0,0,1-.27-.3.87.87,0,0,1-.1-.19,2.19,2.19,0,0,1-.16-.3,1.52,1.52,0,0,1,0-.21,1.57,1.57,0,0,1,0-.3v-1.84A2.26,2.26,0,0,1,240.19,283.42Z" style="fill:#e0e0e0"></path><path d="M331.29,296.87a1.58,1.58,0,0,1-.05.57s0,0,0,0a2.26,2.26,0,0,1-.22.44l0,.05a2.53,2.53,0,0,1-.39.43l0,0a3.76,3.76,0,0,1-.58.42l-31.44,18.27a5.2,5.2,0,0,1-.9.39l-.35.11-.46.11a5,5,0,0,1-.56.1l-.13,0c-.25,0-.51,0-.77,0h-.12c-.26,0-.51,0-.76,0h-.11c-.25,0-.5-.08-.74-.13l-.13,0a5.8,5.8,0,0,1-.63-.2l-.12,0a6.3,6.3,0,0,1-.69-.33l-51.87-29.95a3.43,3.43,0,0,1-.59-.42,1.14,1.14,0,0,1-.15-.16,1.88,1.88,0,0,1-.27-.3.87.87,0,0,1-.1-.19,2.19,2.19,0,0,1-.16-.3,1.52,1.52,0,0,1,0-.21,1.57,1.57,0,0,1,0-.3v1.84a1.57,1.57,0,0,0,0,.3,1.52,1.52,0,0,0,0,.21,2.19,2.19,0,0,0,.16.3.87.87,0,0,0,.1.19,2.44,2.44,0,0,0,.27.3c.05.05.09.11.15.16a3.43,3.43,0,0,0,.59.42L292.08,319a6.3,6.3,0,0,0,.69.33l.12,0a5.8,5.8,0,0,0,.63.2l.13,0c.24,0,.49.09.74.12l.11,0c.25,0,.5,0,.76,0h.12c.26,0,.52,0,.77,0l.13,0,.56-.1.46-.11.35-.11a5.2,5.2,0,0,0,.9-.39L330,300.68a3.76,3.76,0,0,0,.58-.42l0,0a2.24,2.24,0,0,0,.39-.44l0,0a2.26,2.26,0,0,0,.22-.44s0,0,0,0a2,2,0,0,0,0-.42h0v-2Z" style="opacity:0.30000000000000004"></path><path d="M243.26,285.28l50.4,29.1a1,1,0,0,0,.2.09l.11,0a2.34,2.34,0,0,0,.39.12l.28.05.19,0c.13,0,.28,0,.49,0h0a3.46,3.46,0,0,0,.52,0l.33-.05.41-.11a2.17,2.17,0,0,0,.35-.15L313.18,305,261.12,274.9Z" style="fill:#e0e0e0"></path><path d="M295.38,314.73h0Z" style="fill:#263238"></path><path d="M291.21,277.28l-9.49,5.58a1,1,0,0,0,0,1.65l14.18,8.19a1.57,1.57,0,0,0,1.58,0l9.48-5.57a1,1,0,0,0,0-1.66l-14.18-8.19A1.57,1.57,0,0,0,291.21,277.28Z" style="fill:#e0e0e0"></path><path d="M243.26,285.28l50.4,29.1a1,1,0,0,0,.2.09l.11,0a2.34,2.34,0,0,0,.39.12l.28.05.19,0c.13,0,.28,0,.49,0h0a3.46,3.46,0,0,0,.52,0l.33-.05.41-.11a2.17,2.17,0,0,0,.35-.15L313.18,305,261.12,274.9Z" style="opacity:0.2"></path><path d="M291.21,277.28l-9.49,5.58a1,1,0,0,0,0,1.65l14.18,8.19a1.57,1.57,0,0,0,1.58,0l9.48-5.57a1,1,0,0,0,0-1.66l-14.18-8.19A1.57,1.57,0,0,0,291.21,277.28Z" style="opacity:0.2"></path><path d="M316.2,233.37l-6.34,16-25,10.31a10.34,10.34,0,0,1-4.79.74l-9.63-.79a5.46,5.46,0,0,0-3.23.76l-5.51,3.34a5.92,5.92,0,0,0-1.47,1.26l-2.7,3.2a2,2,0,0,0,.37,2.95l1.7,1.22a6,6,0,0,0,6.23.48l4.26-2.15,8.81,1V274L276.5,276a2.53,2.53,0,0,0,.06,3.9h0s5.89-1.74,11.22-10.29L319.09,263a10.49,10.49,0,0,0,7.72-6.77l6-17Z" style="fill:#ffa8a7"></path><path d="M333.44,206.24c-4.26-.48-6.84-.3-10.88,6.49-4.9,8.23-9.59,24-9.59,24,9.41,4.6,20.47,5.35,20.47,5.35C335.83,236.06,333.44,206.24,333.44,206.24Z" style="fill:#FFBC23"></path><g style="opacity:0.30000000000000004"><path d="M333.44,206.24c-4.26-.48-6.84-.3-10.88,6.49-4.9,8.23-9.59,24-9.59,24,9.41,4.6,20.47,5.35,20.47,5.35C335.83,236.06,333.44,206.24,333.44,206.24Z" style="fill:#fff"></path></g><path d="M367.8,213.72c-13.39-6.28-23.42-7-34.36-7.48-16.38,10.54-10.25,19.32-10,33.4.24,11.86,2.45,19.77-2.69,30.71l31.74,18.3c9.21-.11,16.6-2.28,19.6-4.19C376.3,245.5,375.07,216.72,367.8,213.72Z" style="fill:#FFBC23"></path><path d="M367.8,213.72c-13.39-6.28-23.42-7-34.36-7.48-16.38,10.54-10.25,19.32-10,33.4.24,11.86,2.45,19.77-2.69,30.71l31.74,18.3c9.21-.11,16.6-2.28,19.6-4.19C376.3,245.5,375.07,216.72,367.8,213.72Z" style="fill:#fff;opacity:0.5"></path><path d="M354.55,250.38l-4,17.7L323,279.44a11.44,11.44,0,0,1-5.27.82l-10.61-.87a5.92,5.92,0,0,0-3.56.83l-6.08,3.68a6.53,6.53,0,0,0-1.62,1.39l-3,3.52a2.23,2.23,0,0,0,.41,3.25l1.87,1.34a6.63,6.63,0,0,0,6.86.53l4.7-2.37,7.71,1.4a15.43,15.43,0,0,0,10.19-1.68l1.62-.9,33.62-7.1a11.53,11.53,0,0,0,8.86-8.72L373.23,255Z" style="fill:#ffa8a7"></path><path d="M367.8,213.72c16,6,12.38,20.24,6.46,42.8-9.53,2.64-20.82-5.66-20.82-5.66C356.57,233,357.76,213.44,367.8,213.72Z" style="fill:#FFBC23"></path><path d="M367.8,213.72c16,6,12.38,20.24,6.46,42.8-9.53,2.64-20.82-5.66-20.82-5.66C356.57,233,357.76,213.44,367.8,213.72Z" style="fill:#fff;opacity:0.30000000000000004"></path><path d="M231.72,246.79h0l1.24-.62h0a1.56,1.56,0,0,1,1.39.09l52.23,30.37a6.29,6.29,0,0,1,3.06,4.47L295,315.25a1.55,1.55,0,0,1-.88,1.65h0l-1.21.59h0a1.55,1.55,0,0,1-1.35-.11L239.37,287a6.3,6.3,0,0,1-3.06-4.47l-5.37-34.15A1.55,1.55,0,0,1,231.72,246.79Z" style="fill:#e0e0e0"></path><path d="M260.21,278a11.53,11.53,0,0,1,5.18,7.46c.34,2.67-1.42,3.66-3.95,2.2a11.59,11.59,0,0,1-5.18-7.47C255.92,277.57,257.69,276.58,260.21,278Z" style="fill:#fff"></path><path d="M294,315.77l-5.37-34.14a6.31,6.31,0,0,0-3.06-4.48l-52.23-30.36a1.55,1.55,0,0,0-1.57,0h0l1.24-.62h0a1.56,1.56,0,0,1,1.39.09l52.23,30.37a6.29,6.29,0,0,1,3.06,4.47L295,315.25a1.55,1.55,0,0,1-.88,1.65h0l-1.21.59h0A1.57,1.57,0,0,0,294,315.77Z" style="opacity:0.30000000000000004"></path><path d="M324,189.41a11.72,11.72,0,0,1-3.26-15.47,6.38,6.38,0,0,1-3.09-2.91,3.41,3.41,0,0,1,4.43-4.54A4.8,4.8,0,0,1,324,160.9a4.5,4.5,0,0,1,5.61,1,3.09,3.09,0,0,1,2.09-3,6.23,6.23,0,0,1,3.9.25c1.25.43,2.43,1,3.69,1.45a28.9,28.9,0,0,0,6.64.85,13.36,13.36,0,0,1,6.41,1.7c1.87,1.22,3.53,4.06,2.52,6.5a3.7,3.7,0,0,1,2.66-1.41,3.57,3.57,0,0,1,2.73,1.16c-1.4.87-2.75,1.8-4.14,2.66,1.4-.63,3.5.36,4.26,1.7a8.59,8.59,0,0,1,.75,4.5A60,60,0,0,1,358,195.5c-.95,2.87-2.33,5.91-5,7.24Z" style="fill:#37474f"></path><path d="M338.8,203.23l.62,6.86a2.61,2.61,0,0,1-.39,1.51,3.91,3.91,0,0,0,.6,4.49,5.11,5.11,0,0,0,3.07,1A14.81,14.81,0,0,0,354,212.75a3.24,3.24,0,0,0,.9-2.35l-.45-17.4Z" style="fill:#ffa8a7"></path><path d="M353.11,193.9l-14.31,9.33.55,6.08c3.32-.78,6.67-1.74,9.3-3.88A12.74,12.74,0,0,0,353.11,193.9Z" style="opacity:0.30000000000000004"></path><path d="M323.21,175.27a61.42,61.42,0,0,0,1.54,23.8,18.51,18.51,0,0,0,1.89,4.89,7.84,7.84,0,0,0,3.86,3.42c2,.76,4.26.39,6.38,0,3.89-.68,7.87-1.4,11.24-3.45s6.05-5.73,5.72-9.66a6.74,6.74,0,0,0,6.45.36,6.87,6.87,0,0,0,3.54-5.47c.15-2.2-1.12-4.65-3.28-5.08a4.73,4.73,0,0,0-3.76,1.09,14,14,0,0,0-2.62,3.06,4.62,4.62,0,0,1-1.31,1.4,1.58,1.58,0,0,1-1.8,0,2.35,2.35,0,0,1-.51-2l.22-5a2,2,0,0,0-1.1-1.85,4.87,4.87,0,0,1-2.23-2.57,9.85,9.85,0,0,1-.63-3,1.23,1.23,0,0,0-1.68-1.05C338.44,176.92,330.11,177,323.21,175.27Z" style="fill:#ffa8a7"></path><polygon points="334.17 187.35 329.69 194.89 335.03 195.89 334.17 187.35" style="fill:#f28f8f"></polygon><path d="M340.18,198.49l-4.06,2a2.66,2.66,0,0,0,3.08.88A2.42,2.42,0,0,0,340.18,198.49Z" style="fill:#f28f8f"></path><path d="M340.18,198.49l-4.06,2a2.66,2.66,0,0,0,3.08.88A2.42,2.42,0,0,0,340.18,198.49Z" style="opacity:0.30000000000000004"></path><path d="M337.79,201.47a2.4,2.4,0,0,0,1.41-.13,2.17,2.17,0,0,0,1.08-2.14,2.44,2.44,0,0,0-2.49,2.27Z" style="fill:#f28f8f"></path><path d="M341.9,187.65a1.53,1.53,0,1,1-1.68-1.38A1.54,1.54,0,0,1,341.9,187.65Z" style="fill:#263238"></path><path d="M329,188.44a1.53,1.53,0,1,1-1.68-1.37A1.53,1.53,0,0,1,329,188.44Z" style="fill:#263238"></path><path d="M326.94,182.52l-3.15,2.68a2.19,2.19,0,0,1,.42-2.46A2.6,2.6,0,0,1,326.94,182.52Z" style="fill:#263238"></path><path d="M340,181l3.62,2a2.19,2.19,0,0,0-.9-2.33A2.6,2.6,0,0,0,340,181Z" style="fill:#263238"></path></g></svg>