<svg xmlns="http://www.w3.org/2000/svg" viewBox="0 0 750 500"><g id="freepik--background-simple--inject-185"><path d="M579.85,226.16c-16.08-40.69-57.91-70.93-101.6-68.71-20.72,1.06-41.63,8.63-61.76,3.63-19.37-4.81-34.08-20.35-46.16-36.22s-23.12-33.22-39.57-44.51c-29.4-20.18-76.71-16-105.38,5.24s-49,59.56-50.14,94.7c-2.15,64,30.3,118.62,80.15,158.74C279,358,378.67,394.87,422.1,392.7c53.72.21,86.22-3.18,130.28-45.22C587,314.49,593.36,260.37,579.85,226.16Z" style="fill:#ebebeb"></path><circle cx="135.98" cy="382.47" r="28.11" style="fill:#ebebeb"></circle><circle cx="608.49" cy="212.53" r="14.06" transform="translate(262.61 756.4) rotate(-76.8)" style="fill:#ebebeb"></circle></g><g id="freepik--Character--inject-185"><path d="M398.41,194.76l-53-19c3.47,41.34,6.84,83.71-4.15,123.71-1.19,4.33-2.24,9.75,1.2,12.63,2.06,1.72,5,1.78,7.69,1.7q8.24-.25,16.45-1.21c5.82-.67,12-1.81,16.17-5.95,3.47-3.48,4.87-8.46,6-13.23A346.91,346.91,0,0,0,398.41,194.76Z" style="fill:#263238"></path><path d="M311.64,365.4l6.28-8.23,4.2-22,9.56-53.55s4.21-20.14,17.2-25.91l2.75,53.5-26.5,67.23Z" style="fill:#FFBC23"></path><path d="M368.6,241.15l-7.81,9.24-11.91,5.3S322.66,305.77,322,306.24s-4.91,14.75-2.57,26.92,4,28.09,3.74,39.55S307.92,421.87,307,430.53s-4,42.13-4,42.13l132.48-1a243.08,243.08,0,0,0-4.92-25s-.47-33.24-5.38-39.56c0,0,3.74-8.66,3.28-13.57s19.66-31.13,23.64-40.26,19.66-30,19.89-44.94-2.11-27.62-9.6-37.92-21.06-17.32-26.68-21.06l-11-14.05Z" style="fill:#FFBC23"></path><path d="M321.37,472.66a2,2,0,0,1,0-.4c0-.29,0-.68,0-1.18,0-1.06.11-2.57.19-4.51.17-3.94.4-9.6.69-16.58.12-3.5.25-7.34.3-11.46,0-2,0-4.18,0-6.37a29.21,29.21,0,0,1,.67-6.78,106.72,106.72,0,0,1,4.33-13.9,67.34,67.34,0,0,0,2.29-7.3,31.77,31.77,0,0,0,.51-3.86l.39-4c.54-5.32,1.06-10.51,1.56-15.53.26-2.51.5-5,.75-7.39s.55-4.77.62-7.08A181.77,181.77,0,0,1,337,342c1.35-6.88,2.59-12.42,3.39-16.26.4-1.89.71-3.37.92-4.41l.25-1.15a2.54,2.54,0,0,1,.1-.39,2.37,2.37,0,0,1-.05.4c-.05.29-.11.67-.19,1.16-.2,1-.48,2.53-.83,4.44-.74,3.85-1.92,9.39-3.23,16.28a186.72,186.72,0,0,0-3.22,24.36c-.06,2.32-.39,4.67-.61,7.09s-.48,4.88-.73,7.39l-1.55,15.54-.39,4a32.65,32.65,0,0,1-.53,3.92,64.46,64.46,0,0,1-2.31,7.36,106.78,106.78,0,0,0-4.34,13.83,29.51,29.51,0,0,0-.69,6.66c.07,2.21.06,4.34,0,6.4-.07,4.12-.22,8-.36,11.46-.3,7-.62,12.67-.85,16.58-.13,1.94-.23,3.45-.3,4.51q-.06.74-.09,1.17A3.35,3.35,0,0,1,321.37,472.66Z" style="fill:#263238"></path><path d="M342,319.32c0-1.07,4.7-19.22,14.52-34.39s12-28.41,12-28.41l.16-19.58.84,2.52,49.8-7.22,1.51,7.2L387.5,269.55s-15.4,3-16,3.42S342,319.32,342,319.32Z" style="fill:#efbda8"></path><path d="M435.71,249.37a4.41,4.41,0,0,1-.44.69c-.3.45-.75,1.11-1.34,1.94-1.18,1.67-2.94,4.05-5.17,6.95s-4.94,6.31-7.86,10.16c-1.46,1.93-3,4-4.5,6.1a13.89,13.89,0,0,1-1.25,1.6,3.1,3.1,0,0,1-1.91,1,3.84,3.84,0,0,1-2.09-.6c-.62-.36-1.18-.74-1.77-1.12l-6.86-4.4c-1.11-.71-2.19-1.43-3.26-2.08a5.3,5.3,0,0,0-3.34-1,6.69,6.69,0,0,0-3.06,1.43c-.9.68-1.79,1.37-2.72,1.94a19.3,19.3,0,0,1-5.56,2.31,19.61,19.61,0,0,1-8.65.2,12.47,12.47,0,0,1-1.33-.32c-.38-.11-.7-.2-1-.3a3.8,3.8,0,0,1-.76-.32,6.32,6.32,0,0,1,.79.22c.26.08.58.16,1,.25a13.45,13.45,0,0,0,1.33.27,19.94,19.94,0,0,0,8.52-.35,19.26,19.26,0,0,0,5.42-2.33c.9-.56,1.76-1.24,2.68-1.94a7,7,0,0,1,3.27-1.54,5.85,5.85,0,0,1,3.66,1c1.09.67,2.16,1.37,3.28,2.08l6.86,4.39c1.17.71,2.3,1.7,3.54,1.64a2.52,2.52,0,0,0,1.58-.84,13.25,13.25,0,0,0,1.21-1.54c1.53-2.13,3.06-4.17,4.53-6.09,2.94-3.84,5.69-7.22,8-10.09s4.06-5.22,5.29-6.85l1.43-1.88A6.27,6.27,0,0,1,435.71,249.37Z" style="fill:#263238"></path><path d="M360.79,306.5a8.09,8.09,0,0,1,.74-1.42c.5-.89,1.27-2.17,2.24-3.73,2-3.12,4.78-7.35,8.17-11.83s6.68-8.35,9.16-11.07c1.24-1.36,2.26-2.44,3-3.17a9.37,9.37,0,0,1,1.16-1.1,8.89,8.89,0,0,1-1,1.23c-.73.85-1.7,1.95-2.86,3.28-2.39,2.78-5.64,6.68-9,11.15s-6.25,8.65-8.27,11.71c-1,1.48-1.77,2.7-2.38,3.64A9.77,9.77,0,0,1,360.79,306.5Z" style="fill:#263238"></path><path d="M365.09,310.34l.19,0,.57.12,2.21.47c1.94.42,4.78,1,8.4,1.77,1.81.36,3.82.75,6,1.13,1.1.19,2.24.35,3.43.53s2.42.48,3.67.81c2.5.64,5.12,1.48,7.85,2.43,1.37.48,2.76,1,4.18,1.55.71.28,1.42.56,2.14.87l1.07.47.54.26.28.15.14.09.07.06a.42.42,0,0,1,.13.23v.06l-10.44,33.34v0a20.46,20.46,0,0,1-2,3.05,14,14,0,0,1-2.64,2.69,4.49,4.49,0,0,1-1.22.66l-1.24.42-2.46.83L381.14,364l-9.38,3.15-.14.05-.11-.1-9.81-9.09-2.32-2.16a29.07,29.07,0,0,1-2.24-2.2,5.66,5.66,0,0,1-1.32-2.82,10,10,0,0,1,.06-3c1.34-7.66,2.85-14.37,4.22-19.94s2.63-10,3.52-13l1.06-3.45.29-.88a1.44,1.44,0,0,1,.12-.3s0,.11-.07.31-.15.52-.25.9l-1,3.46c-.84,3-2.05,7.43-3.38,13s-2.8,12.29-4.09,19.92a9.53,9.53,0,0,0-.06,2.87,5.09,5.09,0,0,0,1.24,2.59,27.9,27.9,0,0,0,2.19,2.15L362,357.7l9.82,9.07-.25,0,9.37-3.17,4.86-1.64,2.46-.83,1.24-.42a4,4,0,0,0,1.07-.59,13.84,13.84,0,0,0,2.54-2.59,20.66,20.66,0,0,0,1.91-3l0,0,10.51-33.32.19.07a131.8,131.8,0,0,0-16.24-5.76c-1.24-.33-2.46-.61-3.63-.82s-2.34-.36-3.44-.56c-2.19-.39-4.2-.8-6-1.18-3.62-.77-6.45-1.43-8.38-1.89l-2.2-.54-.56-.15C365.15,310.37,365.08,310.35,365.09,310.34Z" style="fill:#263238"></path><g style="opacity:0.30000000000000004"><path d="M366.18,425.83c-11.58-1.75-27.67-6.58-40.87-9.34-4.71-1-8.79-2.12-13.5-3.1L311,416a157.59,157.59,0,0,1,38.5,13.73c7.32,3.75,14.58,8.13,22.72,9.32,9.11,1.34,18.26-1.46,27-4.23,5-1.57,10.15-3.28,13.68-7.08,2.49-2.69,3.91-6.17,5.22-9.59q5.17-13.57,9.05-27.6C411.45,408.21,389.55,429.37,366.18,425.83Z"></path></g><path d="M420.78,311.86l-33.28,61.2s-7.72,1.55-7.72,9.72c0,0-2.69-2.15-6.6.18-2.51,1.49-9.58,3.48-13.49,5.57a4.65,4.65,0,0,0-2.3,5.35l10.33,37.53s12.55,0,13.66-3.11l17.21-5.39S409.7,420,414,412.58,443.92,367,443.92,367" style="fill:#FFBC23"></path><path d="M443.92,367s-.07.14-.23.39-.41.62-.71,1.1l-2.8,4.25L429.7,388.58c-2.23,3.4-4.69,7.14-7.34,11.2s-5.5,8.42-8.36,13.15a19.35,19.35,0,0,1-6.11,6,35.47,35.47,0,0,1-8.14,3.87l-18.29,5.74.16-.16a2.84,2.84,0,0,1-1.31,1.34,8.7,8.7,0,0,1-1.68.68,21.82,21.82,0,0,1-3.54.75,57.59,57.59,0,0,1-7.37.52h-.2l0-.19-5.83-21.18q-1.58-5.71-3.11-11.31c-.5-1.88-1-3.68-1.5-5.58a4.93,4.93,0,0,1,2.45-5.06,102.24,102.24,0,0,1,10.28-4.14c.84-.33,1.67-.66,2.47-1a20.2,20.2,0,0,1,2.43-1.17,5.89,5.89,0,0,1,5.27.59l-.4.19a10,10,0,0,1,2.24-6.49,10.83,10.83,0,0,1,5.69-3.46l-.16.12c9.94-18.2,18.29-33.48,24.15-44.23l6.85-12.46c.8-1.43,1.41-2.52,1.83-3.29l.48-.83a2.07,2.07,0,0,1,.17-.28s0,.1-.14.29l-.45.86c-.4.77-1,1.88-1.76,3.32-1.57,2.91-3.85,7.15-6.73,12.52l-24,44.32,0,.09-.11,0a10.42,10.42,0,0,0-5.42,3.31,9.46,9.46,0,0,0-2.11,6.18v.47l-.39-.28a5.39,5.39,0,0,0-4.8-.5,19.74,19.74,0,0,0-2.37,1.15c-.82.39-1.66.73-2.51,1.06a100.87,100.87,0,0,0-10.21,4.12,4.42,4.42,0,0,0-2.19,4.53c.43,1.79,1,3.67,1.49,5.52q1.53,5.59,3.11,11.32c2,7.25,3.95,14.36,5.82,21.17l-.24-.19a56.51,56.51,0,0,0,7.3-.5,23,23,0,0,0,3.47-.73,8.07,8.07,0,0,0,1.57-.64,2.36,2.36,0,0,0,1.09-1.07l.05-.11.11,0,18.29-5.7a35.05,35.05,0,0,0,8-3.81,19.11,19.11,0,0,0,6-5.84c2.88-4.73,5.75-9.08,8.4-13.14l7.4-11.17L440,372.6l2.86-4.21.75-1.08C443.82,367.07,443.92,367,443.92,367Z" style="fill:#263238"></path><path d="M425.91,392.53a2.11,2.11,0,0,1-.19-.59c-.12-.44-.26-1-.44-1.7-.39-1.56-.91-3.69-1.56-6.31-1.31-5.31-3.16-12.65-5.34-20.72s-4.28-15.34-5.83-20.6l-1.83-6.23-.49-1.69a2.64,2.64,0,0,1-.13-.61,2.67,2.67,0,0,1,.23.58l.58,1.66c.49,1.46,1.17,3.57,2,6.18,1.64,5.23,3.79,12.5,6,20.57s4,15.44,5.2,20.78c.61,2.67,1.09,4.84,1.4,6.34l.34,1.73A4.61,4.61,0,0,1,425.91,392.53Z" style="fill:#fff"></path><path d="M413.77,411.66c-.14,0-2.92-14.47-6.2-32.37s-5.84-32.45-5.7-32.48,2.92,14.47,6.21,32.38S413.91,411.64,413.77,411.66Z" style="fill:#fff"></path><path d="M359,326.72c.08.12-4.8,3.58-10.89,7.73s-11.11,7.41-11.19,7.29,4.8-3.58,10.89-7.72S358.92,326.6,359,326.72Z" style="fill:#fff"></path><path d="M355.76,339.78a4.25,4.25,0,0,1-.72.76c-.49.47-1.2,1.12-2.1,1.91-1.8,1.59-4.32,3.73-7.19,6s-5.52,4.26-7.47,5.65c-1,.7-1.77,1.25-2.33,1.62a5.3,5.3,0,0,1-.9.53,4.05,4.05,0,0,1,.78-.7l2.23-1.75c1.9-1.46,4.51-3.48,7.37-5.76s5.42-4.36,7.27-5.88l2.21-1.78A4,4,0,0,1,355.76,339.78Z" style="fill:#fff"></path><path d="M334,341.2c-.12.09-3.6-4.48-7.77-10.19s-7.47-10.42-7.35-10.51,3.59,4.48,7.77,10.2S334.13,341.12,334,341.2Z" style="fill:#fff"></path><path d="M332.27,358.73a9.68,9.68,0,0,1-1.77-1.54c-1-1-2.42-2.46-3.85-4.15s-2.63-3.29-3.45-4.49a9.41,9.41,0,0,1-1.21-2,11,11,0,0,1,1.51,1.78c.89,1.14,2.13,2.69,3.55,4.37s2.75,3.17,3.71,4.24A11.85,11.85,0,0,1,332.27,358.73Z" style="fill:#fff"></path><path d="M423.22,264.86a20.26,20.26,0,0,1-2.46-1.66L415,259c-2.25-1.65-4.26-3.17-5.69-4.31a15.49,15.49,0,0,1-2.24-1.95,18,18,0,0,1,2.46,1.65l5.78,4.19c2.25,1.65,4.27,3.17,5.7,4.31A14.61,14.61,0,0,1,423.22,264.86Z" style="fill:#fff"></path><path d="M427.78,258.54a80.61,80.61,0,0,1-7.22-5.65,83,83,0,0,1-6.9-6.06,79,79,0,0,1,7.23,5.66A80.68,80.68,0,0,1,427.78,258.54Z" style="fill:#fff"></path><path d="M379.73,322c.14,0-1.64,10-4,22.19s-4.36,22.11-4.5,22.09,1.65-10,4-22.19S379.59,321.92,379.73,322Z" style="fill:#fff"></path><path d="M405.05,396.42a3.83,3.83,0,0,1-.86-.41c-.55-.29-1.31-.75-2.24-1.35a44,44,0,0,1-6.66-5.45,43,43,0,0,1-5.45-6.66c-.6-.92-1.06-1.68-1.35-2.23a3.24,3.24,0,0,1-.4-.87c.07,0,.78,1.12,2.06,2.89a53.47,53.47,0,0,0,5.51,6.51,55.2,55.2,0,0,0,6.5,5.51C403.94,395.63,405.1,396.34,405.05,396.42Z" style="fill:#263238"></path><path d="M406.15,377.22a11.76,11.76,0,0,1-2.84.51,33.57,33.57,0,0,1-13.79-1.46,11.38,11.38,0,0,1-2.67-1.1c0-.07,1.07.29,2.78.75a42.62,42.62,0,0,0,6.76,1.28,43.92,43.92,0,0,0,6.89.17A24.55,24.55,0,0,1,406.15,377.22Z" style="fill:#263238"></path><path d="M334.64,282.15a.9.9,0,0,1-.07.24l-.27.68c-.22.6-.6,1.47-1.11,2.57-1,2.21-2.73,5.29-4.95,9a82.22,82.22,0,0,0-6.88,13.55l-.36,1-.3,1c-.19.7-.39,1.42-.58,2.14a14.7,14.7,0,0,0-.47,2.21c-.12.75-.25,1.51-.38,2.28-.18,1.54-.28,3.12-.37,4.72,0,.8,0,1.61,0,2.43s0,1.63.07,2.45A155.54,155.54,0,0,0,321.55,345a131.91,131.91,0,0,1,2.06,15.14c.2,2.16.1,4.14.13,5.87-.14,1.72-.22,3.21-.37,4.42s-.37,2.09-.49,2.76l-.14.71a1,1,0,0,1-.07.24,1,1,0,0,1,0-.25q0-.28.09-.72c.09-.67.22-1.6.39-2.76s.17-2.69.28-4.41c-.06-1.72,0-3.68-.21-5.84a141.11,141.11,0,0,0-2.16-15.07,150.84,150.84,0,0,1-2.62-18.53c-.07-.83-.08-1.65-.07-2.48s0-1.63,0-2.45c.1-1.61.2-3.21.38-4.77.14-.77.27-1.54.4-2.3a15.09,15.09,0,0,1,.47-2.24c.21-.73.41-1.45.61-2.16l.3-1.06c.12-.35.25-.69.37-1a79.83,79.83,0,0,1,7-13.57c2.25-3.71,4-6.75,5.08-8.93.53-1.09.94-1.93,1.2-2.52.12-.27.22-.48.31-.66A.85.85,0,0,1,334.64,282.15Z" style="fill:#263238"></path><path d="M368.6,241.15l-.13.21-.4.58c-.35.52-.92,1.25-1.67,2.17-1.51,1.85-3.8,4.43-6.69,7.6-1.43,1.6-3,3.34-4.7,5.22s-3.46,3.94-5.15,6.24a40.69,40.69,0,0,0-6.47,17.31l-.49-.14a29.24,29.24,0,0,1,2.81-4.35c.54-.73,1.08-1.46,1.58-2.2.25-.37.5-.74.72-1.12l.33-.57.16-.29.07-.15,0-.07.06-.09a.29.29,0,0,1,.27-.1.31.31,0,0,1,.22.16l0,.06,0,.08.06.16.12.32a3.69,3.69,0,0,1,.21.64,8.65,8.65,0,0,1,.29,1.32,13.78,13.78,0,0,1,.17,2.64,52.45,52.45,0,0,1-1.64,9.81c-1.17,6.24-3.31,11.58-4.58,16.17a41.66,41.66,0,0,0-1.85,11.1,25.76,25.76,0,0,0,.14,3.06c0,.32.07.59.09.79a.86.86,0,0,1,0,.28,18.43,18.43,0,0,1-.45-4.13,40,40,0,0,1,1.71-11.2c1.23-4.63,3.32-10,4.46-16.17a52.89,52.89,0,0,0,1.6-9.72,13.61,13.61,0,0,0-.17-2.55,8.14,8.14,0,0,0-.28-1.26,3.31,3.31,0,0,0-.19-.61l-.12-.3-.05-.15,0-.08v0c.08,0-.2.07.19-.1h0c-.17-.09.24.11.19.1v0l0,.07L349,272l-.16.31-.34.59c-.24.39-.48.77-.74,1.14-.51.75-1.05,1.48-1.59,2.22a29,29,0,0,0-2.76,4.25l-.74,1.56.25-1.7a40.66,40.66,0,0,1,6.61-17.51c1.71-2.32,3.52-4.35,5.21-6.24s3.3-3.61,4.76-5.19c2.92-3.14,5.25-5.68,6.79-7.48.77-.91,1.36-1.61,1.74-2.11l.44-.55C368.53,241.2,368.59,241.14,368.6,241.15Z" style="fill:#263238"></path><path d="M370.67,383.87a1.82,1.82,0,0,1,.35.34l.93,1.05a18.59,18.59,0,0,1,1.39,1.72c.51.7,1.14,1.47,1.71,2.39s1.25,1.92,1.85,3.05,1.23,2.34,1.86,3.64a54.52,54.52,0,0,1,3.08,8.85,55.3,55.3,0,0,1,1.37,9.27c0,1.44.11,2.81,0,4.09a34.22,34.22,0,0,1-.24,3.56c-.07,1.09-.27,2.06-.4,2.91a19.54,19.54,0,0,1-.44,2.17l-.34,1.36a1.7,1.7,0,0,1-.15.47,1.63,1.63,0,0,1,.05-.49c.07-.38.15-.83.24-1.38s.26-1.32.35-2.18.28-1.81.33-2.9.18-2.25.17-3.53,0-2.62-.08-4.05a57.3,57.3,0,0,0-1.4-9.17,56.36,56.36,0,0,0-3-8.78c-.61-1.29-1.16-2.53-1.8-3.63s-1.2-2.14-1.78-3.05-1.15-1.72-1.63-2.42-.94-1.3-1.32-1.77l-.85-1.11A2.08,2.08,0,0,1,370.67,383.87Z" style="fill:#263238"></path><path d="M402.42,329.4a8.67,8.67,0,0,1-1.51-.51l-4.07-1.49c-3.45-1.25-8.25-2.84-13.65-4.27s-10.37-2.44-14-3.07l-4.28-.72a10.65,10.65,0,0,1-1.57-.3,8.68,8.68,0,0,1,1.6.1c1,.1,2.49.29,4.31.56a134,134,0,0,1,14,2.92A136,136,0,0,1,397,327.05c1.71.67,3.08,1.23,4,1.66A9.16,9.16,0,0,1,402.42,329.4Z" style="fill:#263238"></path><g style="opacity:0.30000000000000004"><path d="M397,399.93a13.82,13.82,0,0,0-2.82-3.61L379.82,381.7l0,1.08c3.19,2.17,3.87,6.57,4.79,10.32s1.72,7.76,4.33,10.61a6.89,6.89,0,0,0,4,2.29,4.19,4.19,0,0,0,4.1-1.67A4.64,4.64,0,0,0,397,399.93Z"></path></g><g style="opacity:0.30000000000000004"><path d="M377.27,365.25a8.86,8.86,0,0,1-4.91.77,8.74,8.74,0,0,1-3.71-2.38L356.7,352.75c3.42,5,6.16,10.12,9.58,15.15.92,1.36,1.94,2.79,3.48,3.35s3.4.07,5-.54A42.55,42.55,0,0,0,390,360.65Z"></path></g><g style="opacity:0.30000000000000004"><path d="M362.26,303.49c11.17-5.35,15.19-20.21,26.28-25.74a19.94,19.94,0,0,1,20.13,1.62c1.92,1.38,4.05,3.22,6.33,2.57,1.72-.49,2.71-2.24,3.52-3.83q4.16-8.14,8.32-16.3l-10.91,12.86a6,6,0,0,1-2.83,2.2c-2.2.57-3.79-1.9-5.82-2.91-6.32-3.15-10.76-7.12-14.28-4.46,0,0-6.15,4.23-8.61,4.68l-22.13,28.89"></path></g><g style="opacity:0.30000000000000004"><path d="M343.24,314.37c-.92-4.92.18-10.36,2.21-14.93s4.58-9,5.83-13.82a27.49,27.49,0,0,0,.41-11.87c-.35-1.84-.88-3.71-.48-5.54a10.39,10.39,0,0,1,1.5-3.24,72.27,72.27,0,0,1,8.72-11.3l7-10.5s.3,12.2.07,13.35a77.39,77.39,0,0,1-3,10.64,84.92,84.92,0,0,1-7.92,16.2,128,128,0,0,0-9.83,18.46Z"></path></g><path d="M387.5,269.55c-14.17-3.34-18.52-10.39-18.69-22.85l-.21-15.86s-15.69-.81-19.35-24.18c-1.82-11.62-3.4-30.4-2.38-46,.91-14,15.47-38.72,29.42-37.21l38.34,18.65a8.22,8.22,0,0,1,7.33,8.35h0l-3,90.57" style="fill:#efbda8"></path><path d="M352.86,177.87a3,3,0,0,0,2.88,3,2.86,2.86,0,0,0,3.09-2.7,3,3,0,0,0-2.87-3A2.88,2.88,0,0,0,352.86,177.87Z" style="fill:#263238"></path><path d="M351,171.42c.32.28,2.68,0,5.81.73s5.27,2.16,5.64,2c.19,0-.12-.5-1.05-1.13a14.54,14.54,0,0,0-4.47-1.88,12.78,12.78,0,0,0-4.67-.33C351.23,171,350.84,171.28,351,171.42Z" style="fill:#263238"></path><path d="M382.86,178.77a3,3,0,0,0,2.89,3,2.87,2.87,0,0,0,3.09-2.7,3,3,0,0,0-2.88-3A2.88,2.88,0,0,0,382.86,178.77Z" style="fill:#263238"></path><path d="M382.74,173.93c.47.11,2.54-1.47,5.92-2.37s6.17-.65,6.46-1c.15-.15-.38-.44-1.6-.58a14.88,14.88,0,0,0-5.26.51,13.19,13.19,0,0,0-4.62,2.16C382.74,173.38,382.52,173.88,382.74,173.93Z" style="fill:#263238"></path><path d="M370.91,195.16c0-.18-2-.53-5.24-.95-.82-.09-1.6-.25-1.74-.82a4.2,4.2,0,0,1,.56-2.43c.78-2,1.59-4.08,2.45-6.27,3.4-8.91,5.86-16.24,5.5-16.38s-3.41,7-6.81,15.9l-2.34,6.3a4.72,4.72,0,0,0-.44,3.23A2.09,2.09,0,0,0,364.2,195a5.42,5.42,0,0,0,1.4.19C368.87,195.33,370.89,195.35,370.91,195.16Z" style="fill:#263238"></path><path d="M368.6,231.07a59.38,59.38,0,0,0,31.29-8.27S392,239.26,368.6,237Z" style="fill:#d1967c"></path><path d="M371.42,203c1.6-2.39,4-4,6.2-4.09a3.68,3.68,0,0,1,3.63,2,5.84,5.84,0,0,1-.52,5.36,4.93,4.93,0,0,1-4.88,2.36,8.22,8.22,0,0,1-4-2.63,3.05,3.05,0,0,1-.82-1.15,2,2,0,0,1,.26-1.69" style="fill:#d1967c"></path><path d="M380.39,197.41c-.53,0-.54,3.47-3.54,6s-6.72,2.08-6.75,2.57c-.05.22.83.68,2.4.73a8.8,8.8,0,0,0,5.64-1.95,7.58,7.58,0,0,0,2.74-5C381,198.26,380.63,197.39,380.39,197.41Z" style="fill:#263238"></path><path d="M380.12,159.84c.4.84,3.56.11,7.37.19s6.95.81,7.38,0c.18-.4-.43-1.17-1.74-1.89A12.82,12.82,0,0,0,381.9,158C380.57,158.68,379.94,159.43,380.12,159.84Z" style="fill:#263238"></path><path d="M350,164.32c.71.73,3.47,0,6.78-.08s6.13.48,6.78-.28c.28-.38-.17-1.11-1.39-1.8a11.14,11.14,0,0,0-5.52-1.19,10.86,10.86,0,0,0-5.4,1.48C350.09,163.21,349.7,164,350,164.32Z" style="fill:#263238"></path><path d="M455.51,247.85c-5.09-8.23-9.25-28.74-11-39.13s-7.28-43.73-16.14-61.25-19.29-24.6-29.52-27.36a23.57,23.57,0,0,0-22.54,5.12c-4.62,4.13-6.2,16.17-6.2,16.17s24.69,5.49,33,19.57c9.55,16.17,11.87,24.3,11.87,24.3l3.09,8.85s-2.9,17.12-4,25.59.63,16.32,7.6,19.75l14,9.91s18.32,12.45,19.16,13.09c3.91,3,11.58,14.37,11.58,14.37S465.92,264.68,455.51,247.85Z" style="fill:#263238"></path><path d="M369.4,141.55S355.28,140,350.06,156c-2.35,7.21-4.16,28-4.16,28s-2.06-16.54-1.3-26,5.47-21.38,12.71-28c7-6.43,13-9.45,25.55-8.68,0,0-5.86,2-9.08,6.79C372.17,130.54,371.47,132.57,369.4,141.55Z" style="fill:#263238"></path><path d="M414.8,186.5c.25-5.17,5.88-8.61,10.36-6,2.46,1.43,4.35,4.29,4.12,9.77-.6,14.64-15.17,11-15.18,10.59C414.1,200.57,414.49,192.56,414.8,186.5Z" style="fill:#efbda8"></path><path d="M418.8,195.47c.07,0,.25.19.67.41a2.52,2.52,0,0,0,1.9.11c1.57-.5,3-2.9,3.16-5.53a8.44,8.44,0,0,0-.57-3.68,2.94,2.94,0,0,0-1.83-2,1.3,1.3,0,0,0-1.54.64c-.21.4-.13.69-.21.72s-.3-.26-.16-.86a1.65,1.65,0,0,1,.61-.9,2,2,0,0,1,1.43-.31,3.61,3.61,0,0,1,2.57,2.38,8.6,8.6,0,0,1,.71,4.11c-.21,2.95-1.83,5.65-4,6.17a2.72,2.72,0,0,1-2.31-.48C418.81,195.83,418.75,195.5,418.8,195.47Z" style="fill:#d1967c"></path><path d="M393,119.19c0,.11-2,0-5.19.47a17.93,17.93,0,0,0-5.34,1.6,17.69,17.69,0,0,0-5.36,4.17,27.17,27.17,0,0,0-5.93,10.87c-.85,3.1-.95,5.11-1.06,5.1a7.53,7.53,0,0,1,.05-1.41,26.67,26.67,0,0,1,.65-3.78,26.2,26.2,0,0,1,5.9-11.12,16.63,16.63,0,0,1,11-5.79,31.26,31.26,0,0,1,3.84-.19A7.1,7.1,0,0,1,393,119.19Z" style="fill:#455a64"></path><path d="M428.34,197.08a.74.74,0,0,1,0-.24l.12-.68c.06-.31.14-.68.22-1.11s.14-1,.22-1.52a34.69,34.69,0,0,0-.13-9.78,35.05,35.05,0,0,0-5.06-13.49,39.46,39.46,0,0,0-12.85-12.06,72.73,72.73,0,0,0-8.17-4.28c-2.71-1.25-5.43-2.22-8-3.36A95.28,95.28,0,0,1,382,143.39c-3.47-2.3-6.17-4.32-8-5.75-.91-.72-1.62-1.28-2.08-1.68l-.53-.45c-.12-.11-.18-.16-.17-.17l.2.13.56.41,2.15,1.6c1.87,1.38,4.6,3.35,8.08,5.6a97.21,97.21,0,0,0,12.75,7c2.49,1.12,5.23,2.09,8,3.33a73.68,73.68,0,0,1,8.23,4.3,39.6,39.6,0,0,1,13,12.25,34.71,34.71,0,0,1,5,13.7,33.35,33.35,0,0,1,0,9.85l-.27,1.53c-.1.42-.19.79-.26,1.1l-.18.68C428.38,197,428.35,197.09,428.34,197.08Z" style="fill:#455a64"></path><path d="M431.73,191.56a1.35,1.35,0,0,1,0-.24c0-.19,0-.42,0-.7,0-.62.07-1.52,0-2.69a56,56,0,0,0-5.49-23.65,54.67,54.67,0,0,0-10.22-14.57,64.78,64.78,0,0,0-14.32-10.64c-4.78-2.74-9.29-4.85-13-6.68s-6.79-3.31-8.86-4.41c-1-.53-1.82-1-2.36-1.28l-.61-.35a.93.93,0,0,1-.2-.14s.08,0,.23.09l.63.3,2.4,1.2c2.09,1,5.15,2.49,8.93,4.25s8.3,3.88,13.12,6.6a64.35,64.35,0,0,1,14.45,10.69,55,55,0,0,1,10.29,14.73,56.69,56.69,0,0,1,4.46,14,52.24,52.24,0,0,1,.79,9.87c0,1.17-.11,2.08-.14,2.69,0,.28-.05.51-.06.7A.92.92,0,0,1,431.73,191.56Z" style="fill:#455a64"></path><path d="M431.3,246.25a1.93,1.93,0,0,1-.22-.44l-.55-1.3c-.24-.57-.52-1.27-.78-2.1s-.61-1.77-.87-2.84c-.14-.54-.29-1.09-.44-1.67s-.26-1.2-.4-1.83c-.3-1.27-.48-2.64-.72-4.07a86.7,86.7,0,0,1-.71-9.44,148.48,148.48,0,0,1,.85-17.15c.23-2.18.43-3.94.59-5.16.08-.56.14-1,.19-1.4a2.59,2.59,0,0,1,.1-.49,1.82,1.82,0,0,1,0,.5l-.1,1.41c-.11,1.3-.25,3-.42,5.18-.34,4.37-.81,10.42-.7,17.1a91.28,91.28,0,0,0,.67,9.38c.22,1.43.39,2.8.66,4,.13.63.23,1.24.37,1.83l.41,1.66c.23,1.07.55,2,.79,2.85s.48,1.54.69,2.12.33,1,.46,1.33A1.5,1.5,0,0,1,431.3,246.25Z" style="fill:#455a64"></path><path d="M246.18,380.58s15.9,20.4,21.6,22,27.29,6.95,27.29,6.95l70.85,16.37-8.34-30.37-67.1-.91Z" style="fill:#efbda8"></path><path d="M155.08,276.7c5.31,13.17,32.07,73.42,38.27,87.37a7,7,0,0,0,4.3,3.84l84.22,26.74,83.56,6.24v-2.75l-67.55-20.47-21.34-2.5-31.86-79a11.38,11.38,0,0,0-8.51-6.94l-79.42-14.56A1.51,1.51,0,0,0,155.08,276.7Z" style="fill:#455a64"></path><path d="M365.43,398.14h-.27l-.77-.06-3-.27-10.95-1.1L334.21,395l-19.89-2c-7.06-.7-13.79-1.23-19.92-1.58l-8.71-.54a15,15,0,0,1-2-.26,4,4,0,0,1-1-.32,1.73,1.73,0,0,1-.76-.73,32.66,32.66,0,0,1-1.38-3.42c-1.63-4.31-3-7.82-3.89-10.29-.44-1.19-.78-2.13-1-2.81l-.26-.74a1.17,1.17,0,0,1-.07-.25s0,.07.12.24l.3.71c.28.67.65,1.6,1.13,2.78l4.05,10.24a32.45,32.45,0,0,0,1.37,3.33,1.4,1.4,0,0,0,.6.58,4.1,4.1,0,0,0,.88.27,14,14,0,0,0,2,.23c2.72.13,5.65.33,8.71.51,6.14.32,12.89.83,19.95,1.53l19.89,2,16.23,1.81,10.94,1.26,3,.37.77.1Z" style="fill:#263238"></path><path d="M322.25,382s1.21-7.94,0-9.51-9.72-9.22-9.72-9.22l-4.83-4.54-10.65-1.63a3.24,3.24,0,0,0-3.25,1.5l-1.09,1.75-2.89-.48-2.55-3.69h-7.1l-5.25,5.67v7.66s.71,2.13,2.56.57,2-5.88,2-5.88l3.15,2.9-3.35,10.22s2.35,2.14,4.06,0,4.11-5.25,4.11-5.25,2.84,7.66,7.66,9.93,16.46,4.34,18.88,3.8S321.79,386.25,322.25,382Z" style="fill:#efbda8"></path><path d="M305.4,364.58s0,.12-.19.29a2.09,2.09,0,0,1-.84.53,4.14,4.14,0,0,1-1.55.22c-.61,0-1.28-.15-2-.22a3.53,3.53,0,0,0-2.24.35,10.19,10.19,0,0,0-1.87,2,8.43,8.43,0,0,1-5.69,3.09,5.37,5.37,0,0,1-4.75-2.21l-.11-.16.14-.14a55.8,55.8,0,0,0,5.15-6.28c1.15-1.65,1.77-2.66,1.83-2.63a3.05,3.05,0,0,1-.37.77c-.26.48-.66,1.18-1.21,2a45.93,45.93,0,0,1-5,6.45l0-.31a4.92,4.92,0,0,0,4.32,2,8.06,8.06,0,0,0,5.35-2.89,10.57,10.57,0,0,1,2-2.06,3.89,3.89,0,0,1,2.52-.35c.75.1,1.41.26,2,.3a4.39,4.39,0,0,0,1.47-.12A3,3,0,0,0,305.4,364.58Z" style="fill:#d1967c"></path><path d="M313.76,381.58c-.06,0-.12-.45-.44-1.2a11.63,11.63,0,0,0-1.84-2.91c-.92-1.14-2.19-2.38-3.34-4a8.49,8.49,0,0,1-1.32-2.85,6.8,6.8,0,0,1,.05-3.38,8.22,8.22,0,0,1,1.53-3,3.62,3.62,0,0,1,1.28-1.07,1.89,1.89,0,0,1,1.66.05,3.82,3.82,0,0,1,1.69,2.32,10.84,10.84,0,0,0,1,2.19,9.2,9.2,0,0,0,2.26,2.57c.64.51,1.05.73,1,.77a4.08,4.08,0,0,1-1.15-.6,8.84,8.84,0,0,1-2.46-2.55,10.68,10.68,0,0,1-1-2.23,3.42,3.42,0,0,0-1.5-2,1.41,1.41,0,0,0-1.25,0,3.09,3.09,0,0,0-1.08.94,7.86,7.86,0,0,0-1.42,2.83,6.32,6.32,0,0,0-.07,3.14,8.35,8.35,0,0,0,1.23,2.69c1.09,1.59,2.33,2.86,3.23,4.05a10.6,10.6,0,0,1,1.74,3.07,4.6,4.6,0,0,1,.22.94Q313.79,381.58,313.76,381.58Z" style="fill:#d1967c"></path><path d="M286.7,362a2.25,2.25,0,0,0-1.54.63,10.3,10.3,0,0,0-1.9,3.77c-.58,1.6-1.08,3.06-1.49,4.1a5.4,5.4,0,0,1-.81,1.63,7.54,7.54,0,0,1,.46-1.75c.32-1.07.77-2.55,1.35-4.16a9.07,9.07,0,0,1,2.15-3.86,2,2,0,0,1,1.29-.51C286.55,361.81,286.71,361.92,286.7,362Z" style="fill:#d1967c"></path><path d="M287.46,361.82c0,.06-.44.15-1.17.06a5.31,5.31,0,0,1-2.67-1.19H284l-.65.57a23.16,23.16,0,0,1-3.86,2.94,22.47,22.47,0,0,1,3.52-3.34l.66-.56.17-.14.16.14a6,6,0,0,0,2.41,1.25A6.48,6.48,0,0,1,287.46,361.82Z" style="fill:#d1967c"></path><path d="M298.73,380.11a6.05,6.05,0,0,1,.76-1.81,20.6,20.6,0,0,1,2.7-3.88,21.26,21.26,0,0,1,3.5-3.19,6,6,0,0,1,1.7-1,62.17,62.17,0,0,0-4.81,4.51A59,59,0,0,0,298.73,380.11Z" style="fill:#d1967c"></path><path d="M238.69,290.49a.81.81,0,0,1,.13.26l.34.78,1.24,3,4.46,11.1c3.74,9.42,8.87,22.38,14.55,36.69s10.71,27.32,14.4,36.75c1.81,4.69,3.28,8.49,4.32,11.16l1.14,3c.12.33.21.59.29.8a1.2,1.2,0,0,1,.08.28,1.63,1.63,0,0,1-.13-.26q-.13-.3-.33-.78c-.3-.72-.72-1.73-1.24-3l-4.47-11.1c-3.73-9.42-8.87-22.38-14.55-36.7s-10.7-27.31-14.4-36.74l-4.31-11.16c-.49-1.3-.87-2.32-1.15-3.05l-.29-.79A2.61,2.61,0,0,1,238.69,290.49Z" style="fill:#263238"></path><ellipse cx="216.81" cy="330.58" rx="4.81" ry="6.56" transform="translate(-152.59 189.74) rotate(-35.87)" style="fill:#fff"></ellipse></g><g id="freepik--Screens--inject-185"><rect x="82.62" y="124.09" width="212.4" height="131.64" rx="7.87" style="fill:#263238"></rect><circle cx="188.82" cy="191.7" r="16.18" style="fill:#FFBC23"></circle><path d="M184.92,196.43v-9.55a.61.61,0,0,1,.91-.53l8.53,4.81a.61.61,0,0,1,0,1.06L185.83,197A.61.61,0,0,1,184.92,196.43Z" style="fill:#fff"></path><path d="M94.76,240.6V241h-1.6v-.27l.87-.82a.58.58,0,0,0,.24-.45c0-.2-.13-.31-.4-.31a.63.63,0,0,0-.51.22l-.28-.21a1,1,0,0,1,.82-.36c.48,0,.78.23.78.62a.86.86,0,0,1-.36.68l-.58.55Z" style="fill:#fff"></path><path d="M95,239.53a.25.25,0,0,1,.25-.26.26.26,0,0,1,0,.52A.25.25,0,0,1,95,239.53Zm0,1.18a.25.25,0,0,1,.25-.26.26.26,0,1,1,0,.52A.25.25,0,0,1,95,240.71Z" style="fill:#fff"></path><path d="M96.5,238.78V241h-.41v-1.83h-.45v-.34Z" style="fill:#fff"></path><path d="M98.86,240.45h-.38v.5h-.39v-.5H96.9v-.28L98,238.78h.43l-1,1.33h.71v-.43h.38v.43h.38Z" style="fill:#fff"></path><rect x="102.4" y="239.59" width="164.5" height="0.75" style="fill:#fff"></rect><rect x="102.28" y="238.78" width="51.41" height="2" style="fill:#FFBC23"></rect><path d="M155.34,240a2.5,2.5,0,1,1-2.5-2.5A2.5,2.5,0,0,1,155.34,240Z" style="fill:#FFBC23"></path><path d="M271,239.94a.72.72,0,0,1-.79.7c-.59,0-.94-.38-.94-1.08a1,1,0,0,1,1.07-1.15,1.08,1.08,0,0,1,.56.14l-.14.3a.82.82,0,0,0-.42-.1c-.4,0-.66.25-.66.74h0a.75.75,0,0,1,.58-.23A.67.67,0,0,1,271,239.94Zm-.39,0c0-.23-.17-.37-.43-.37a.4.4,0,0,0-.44.37c0,.2.16.36.45.36A.37.37,0,0,0,270.65,240Z" style="fill:#fff"></path><path d="M271.24,239.19a.24.24,0,0,1,.25-.25.25.25,0,0,1,.26.25.26.26,0,0,1-.26.26A.25.25,0,0,1,271.24,239.19Zm0,1.18a.24.24,0,0,1,.25-.25.25.25,0,0,1,.26.25.26.26,0,0,1-.26.26A.25.25,0,0,1,271.24,240.37Z" style="fill:#fff"></path><path d="M272,239.53c0-.72.39-1.12.9-1.12s.91.4.91,1.12-.39,1.11-.91,1.11S272,240.24,272,239.53Zm1.4,0c0-.53-.2-.77-.5-.77s-.5.24-.5.77.21.76.5.76S273.41,240.05,273.41,239.53Z" style="fill:#fff"></path><path d="M274.09,239.53c0-.72.39-1.12.9-1.12s.91.4.91,1.12-.39,1.11-.91,1.11S274.09,240.24,274.09,239.53Zm1.41,0c0-.53-.21-.77-.51-.77s-.5.24-.5.77.21.76.5.76S275.5,240.05,275.5,239.53Z" style="fill:#fff"></path><polygon points="279.4 239.39 278.65 239.39 278.65 237.23 280.81 237.23 280.81 237.98 279.4 237.98 279.4 239.39" style="fill:#fff"></polygon><polygon points="280.81 242.21 278.65 242.21 278.65 240.06 279.4 240.06 279.4 241.46 280.81 241.46 280.81 242.21" style="fill:#fff"></polygon><polygon points="284.26 242.21 282.1 242.21 282.1 241.46 283.51 241.46 283.51 240.05 284.26 240.05 284.26 242.21" style="fill:#fff"></polygon><polygon points="284.26 239.39 283.51 239.39 283.51 237.98 282.1 237.98 282.1 237.23 284.26 237.23 284.26 239.39" style="fill:#fff"></polygon><path d="M256.27,136.88a5.49,5.49,0,0,1,1.15-.1c.77,0,1.92-.08,3.32-.11H261v.21c0,1.68,0,3.6.05,5.69v.63l-.45-.45-.6-.6-1.52-1.52h.35l-2.37,2.1-.39.34v-.51c0-1.75.07-3.21.11-4.19a7.88,7.88,0,0,1,.12-1.5s.06.64.11,1.64.09,2.4.11,4l-.38-.17,2.34-2.14.18-.16.17.17,1.53,1.52.59.59-.44.19c0-2.09,0-4,0-5.69l.21.21c-1.31,0-2.4-.07-3.19-.11A9,9,0,0,1,256.27,136.88Z" style="fill:#fff"></path><path d="M272.72,137.59a17.27,17.27,0,0,1-1.11,1.39c-.74.9-1.84,2.25-3.18,3.75l-.43.49v-.65c0-.89,0-1.84,0-2.82v-.28l.08.19-2-1.93-.44-.43h.61c2,0,3.64.11,4.76.17s1.76.09,1.71.11-.78,0-1.94.09-2.71.12-4.53.12l.17-.42,2,1.9.08.08v.39c0,1,0,1.93,0,2.82l-.43-.17c1.26-1.38,2.4-2.53,3.24-3.39S272.67,137.62,272.72,137.59Z" style="fill:#fff"></path><path d="M272.72,137.59c.06.14-.9.66-2.14,1.18a5.9,5.9,0,0,1-2.33.7,11.35,11.35,0,0,1,4.47-1.88Z" style="fill:#fff"></path><path d="M280.74,136.88a1.51,1.51,0,0,1,.8,0A3.14,3.14,0,0,1,283.4,138a3.32,3.32,0,0,1,.54,3.19,3.39,3.39,0,0,1-6.4,0,3.34,3.34,0,0,1,.53-3.19,3.19,3.19,0,0,1,1.87-1.14,1.51,1.51,0,0,1,.8,0c0,.05-.28.06-.75.2a3.12,3.12,0,0,0-1.62,1.17,2.94,2.94,0,1,0,4.74,0,3.12,3.12,0,0,0-1.62-1.17C281,136.94,280.74,136.93,280.74,136.88Z" style="fill:#fff"></path><path d="M281.82,141.4c-.1.1-.79-.42-1.54-1.16l-.07-.08V140c0-1.06.11-1.92.26-1.92s.26.86.26,1.92v0l-.08-.18C281.4,140.61,281.92,141.3,281.82,141.4Z" style="fill:#fff"></path><path d="M203.81,141.19c0,.15-21.83.26-48.75.26s-48.76-.11-48.76-.26,21.83-.26,48.76-.26S203.81,141.05,203.81,141.19Z" style="fill:#fff"></path><circle cx="97.85" cy="141.19" r="3.85" style="fill:#fff"></circle><rect x="452.98" y="62.04" width="161.6" height="100.16" rx="7.87" style="fill:#f5f5f5"></rect><path d="M588.93,105.85c-3.86-2.36-8.18-4.37-12.71-4.2-6.43.24-11.79,4.75-16.61,9l-22.5,20c-.86.77-1.89,1.59-3,1.42a4,4,0,0,1-2.21-1.54l-19.93-22.1c-4.13-4.59-8.85-9.48-15-10.08-5-.48-9.74,2-13.93,4.76a99.72,99.72,0,0,0-29.8,30.31L453,154.32c1.32,4.51,5.35,7.88,9.62,7.88H605a9.75,9.75,0,0,0,9.62-8.83v-19.7A68,68,0,0,0,588.93,105.85Z" style="fill:#455a64"></path><path d="M462.21,150.69V151H461v-.21l.65-.62c.16-.15.19-.24.19-.34s-.1-.23-.3-.23a.46.46,0,0,0-.39.17l-.21-.17a.74.74,0,0,1,.62-.27c.36,0,.59.18.59.47a.68.68,0,0,1-.27.52l-.44.42Z" style="fill:#263238"></path><path d="M462.38,149.88a.19.19,0,0,1,.19-.2.19.19,0,0,1,.2.2.19.19,0,0,1-.2.19A.19.19,0,0,1,462.38,149.88Zm0,.89a.18.18,0,0,1,.19-.19.19.19,0,0,1,.2.19.2.2,0,1,1-.39,0Z" style="fill:#263238"></path><path d="M463.53,149.3V151h-.3v-1.39h-.35v-.26Z" style="fill:#263238"></path><path d="M465.33,150.58H465V151h-.3v-.37h-.9v-.22l.81-1.06H465l-.77,1h.54V150H465v.33h.29Z" style="fill:#263238"></path><rect x="468.03" y="149.83" width="125.16" height="0.75" style="fill:#263238"></rect><rect x="467.93" y="149.06" width="39.11" height="2" style="fill:#FFBC23"></rect><path d="M508.31,150.2a1.91,1.91,0,1,1-1.91-1.9A1.91,1.91,0,0,1,508.31,150.2Z" style="fill:#FFBC23"></path><path d="M596.33,150.18a.55.55,0,0,1-.6.54c-.45,0-.71-.29-.71-.82a.78.78,0,0,1,.8-.87.84.84,0,0,1,.44.1l-.12.23a.51.51,0,0,0-.31-.08c-.31,0-.5.19-.5.57h0a.54.54,0,0,1,.44-.17A.51.51,0,0,1,596.33,150.18Zm-.29,0c0-.17-.13-.28-.33-.28a.3.3,0,0,0-.34.28c0,.16.13.28.34.28A.29.29,0,0,0,596,150.2Z" style="fill:#263238"></path><path d="M596.48,149.62a.19.19,0,0,1,.2-.2.19.19,0,0,1,.19.2.19.19,0,0,1-.19.19A.19.19,0,0,1,596.48,149.62Zm0,.9a.19.19,0,0,1,.2-.2.19.19,0,0,1,.19.2.19.19,0,0,1-.19.19A.19.19,0,0,1,596.48,150.52Z" style="fill:#263238"></path><path d="M597.07,149.87c0-.54.29-.84.68-.84s.69.3.69.84-.29.85-.69.85S597.07,150.41,597.07,149.87Zm1.07,0c0-.4-.16-.58-.39-.58s-.37.18-.37.58.15.58.37.58S598.14,150.27,598.14,149.87Z" style="fill:#263238"></path><path d="M598.65,149.87c0-.54.3-.84.69-.84s.69.3.69.84-.3.85-.69.85S598.65,150.41,598.65,149.87Zm1.07,0c0-.4-.15-.58-.38-.58s-.38.18-.38.58.16.58.38.58S599.72,150.27,599.72,149.87Z" style="fill:#263238"></path><polygon points="602.79 149.77 602.04 149.77 602.04 148.03 603.77 148.03 603.77 148.78 602.79 148.78 602.79 149.77" style="fill:#263238"></polygon><polygon points="603.77 152 602.04 152 602.04 150.27 602.79 150.27 602.79 151.25 603.77 151.25 603.77 152" style="fill:#263238"></polygon><polygon points="606.48 152 604.75 152 604.75 151.25 605.73 151.25 605.73 150.27 606.48 150.27 606.48 152" style="fill:#263238"></polygon><polygon points="606.48 149.76 605.73 149.76 605.73 148.78 604.75 148.78 604.75 148.03 606.48 148.03 606.48 149.76" style="fill:#263238"></polygon><path d="M585.09,71.77a24.58,24.58,0,0,1,3.41-.2h.2v.22c0,1.22,0,2.71,0,4.32v.63l-.45-.45-.45-.45-1.15-1.16h.35l-1.81,1.59-.39.34V76.1a34.41,34.41,0,0,1,.22-4.33,38.06,38.06,0,0,1,.23,4.33l-.38-.17,1.78-1.63.18-.16.17.17,1.16,1.15.45.46-.44.18c0-1.61,0-3.1,0-4.32l.21.2A27.78,27.78,0,0,1,585.09,71.77Z" style="fill:#263238"></path><path d="M597.61,72.32a9.63,9.63,0,0,1-.8,1.05c-.56.69-1.39,1.74-2.42,2.9l-.43.48V76.1c0-.68,0-1.4,0-2.15v-.21l.08.19-1.51-1.47-.44-.43h.61c1.51,0,2.8.11,3.65.17a8,8,0,0,1,1.27.11c-.05,0-.61,0-1.5.09s-2.06.12-3.42.12l.17-.42,1.53,1.45.08.07V74c0,.75,0,1.47,0,2.15l-.44-.17c1-1,1.82-1.88,2.48-2.53S597.56,72.34,597.61,72.32Z" style="fill:#263238"></path><path d="M597.61,72.32c.06.13-.66.56-1.6,1s-1.75.61-1.8.47.66-.56,1.6-.95S597.56,72.18,597.61,72.32Z" style="fill:#263238"></path><path d="M603.71,71.77a1.09,1.09,0,0,1,.62,0,2.38,2.38,0,0,1,1.45.87,2.56,2.56,0,0,1,.42,2.47,2.63,2.63,0,0,1-5,0,2.56,2.56,0,0,1,.42-2.47,2.38,2.38,0,0,1,1.45-.87c.4-.06.62,0,.61,0s-.21.06-.56.18a2.37,2.37,0,0,0-1.2.89,2.18,2.18,0,1,0,3.53,0,2.37,2.37,0,0,0-1.2-.89C603.93,71.83,603.71,71.82,603.71,71.77Z" style="fill:#263238"></path><path d="M604.54,75.21c-.11.1-.65-.27-1.22-.84l-.07-.08v-.12c0-.81.11-1.46.26-1.46s.26.65.26,1.46v0l-.08-.19C604.26,74.57,604.64,75.11,604.54,75.21Z" style="fill:#263238"></path><path d="M545.18,75.05c0,.15-16.61.26-37.09.26S471,75.2,471,75.05s16.61-.26,37.1-.26S545.18,74.91,545.18,75.05Z" style="fill:#263238"></path><path d="M467.49,75.05a2.93,2.93,0,1,1-2.92-2.92A2.93,2.93,0,0,1,467.49,75.05Z" style="fill:#263238"></path><path d="M606.71,162.2s.46,0,1.31-.15a7.66,7.66,0,0,0,3.47-1.55,7.8,7.8,0,0,0,3-5.29c.1-2.46,0-5.34,0-8.57,0-12.91-.05-31.58-.08-54.65,0-5.76,0-11.81,0-18.1,0-1.57,0-3.19,0-4.75a7.71,7.71,0,0,0-5.94-6.7,11,11,0,0,0-2.45-.19h-2.53l-43.32,0-99.24,0a7.57,7.57,0,0,0-5.65,2.51,7.84,7.84,0,0,0-2,5.85v13q0,12.85,0,25.32v24.44q0,6,0,11.85v8.71a8.27,8.27,0,0,0,.38,2.76,7.6,7.6,0,0,0,3.37,4.2,7.85,7.85,0,0,0,2.55.94,15.57,15.57,0,0,0,2.75.12h32L532,162l54.65.09,14.85,0,3.87,0,1.31,0s-.44,0-1.31,0l-3.87,0-14.85.05-54.65.08-37.74,0-21,0h-11a15.06,15.06,0,0,1-2.83-.13,8.06,8.06,0,0,1-6.3-5.46,8.92,8.92,0,0,1-.4-2.9v-2.88c0-1.94,0-3.88,0-5.83V133.38q0-12,0-24.44V70.66a9.33,9.33,0,0,1,.41-3.3,8.14,8.14,0,0,1,7.73-5.58l99.24,0,43.32,0H606a10.9,10.9,0,0,1,2.54.21,8.1,8.1,0,0,1,4.3,2.56,8.21,8.21,0,0,1,2,4.51c.08,1.64,0,3.2,0,4.79,0,6.29,0,12.34,0,18.1,0,23.07-.07,41.74-.09,54.65,0,3.23,0,6.09-.07,8.59a8,8,0,0,1-3.05,5.36,7.84,7.84,0,0,1-3.53,1.52,6,6,0,0,1-1,.08Z" style="fill:#263238"></path><circle cx="536.49" cy="97.11" r="10.74" style="fill:#455a64"></circle><path d="M370.72,100.86a5.39,5.39,0,0,0,2.54-.92,4.82,4.82,0,0,0,1.81-2.66,7.78,7.78,0,0,0,.15-2.1c0-.76,0-1.58,0-2.44,0-6.95.07-16.92.13-29.23,0-3.08,0-6.32.06-9.68,0-1.69,0-3.4,0-5.15a14.42,14.42,0,0,0-.09-2.57A4.22,4.22,0,0,0,374.22,44,4.06,4.06,0,0,0,372,42.78a21.82,21.82,0,0,0-2.71-.05l-5.71,0-11.92.07-53.08.29a4.32,4.32,0,0,0-4.19,4q0,3.46-.09,6.89-.06,6.87-.13,13.54c-.1,8.88-.19,17.44-.27,25.6,0,1,0,2,0,3a4.62,4.62,0,0,0,.66,2.65,4.2,4.2,0,0,0,2,1.69,7.18,7.18,0,0,0,2.74.26l11.25,0,20.18,0H360l7.95,0,2.06,0a3.88,3.88,0,0,1,.71,0,4.82,4.82,0,0,1-.71,0L368,101l-7.95.12-29.22.29-20.19.15-11.24.08a8,8,0,0,1-3-.31,5,5,0,0,1-2.45-2,5.42,5.42,0,0,1-.79-3.08c0-1,0-2,0-3,.07-8.16.15-16.73.22-25.61q.06-6.66.12-13.54,0-3.45.09-7a5.23,5.23,0,0,1,5.08-4.82L351.69,42l11.92,0,5.72,0a21.28,21.28,0,0,1,2.85.09,4.87,4.87,0,0,1,2.58,1.38A5.19,5.19,0,0,1,376.1,46a14.8,14.8,0,0,1,.08,2.72c0,1.75,0,3.47-.06,5.15q-.06,5.06-.12,9.69c-.18,12.3-.32,22.28-.42,29.22,0,.87,0,1.68-.05,2.45a7.59,7.59,0,0,1-.21,2.16,5,5,0,0,1-1.95,2.74,4.53,4.53,0,0,1-1.94.75A2.72,2.72,0,0,1,370.72,100.86Z" style="fill:#FFBC23"></path><polygon points="337.72 66.78 347.58 72.7 337.56 78.65 327.54 84.59 327.69 72.72 327.85 60.85 337.72 66.78" style="fill:#FFBC23"></polygon></g></svg>