<svg id="Capa_1" enable-background="new 0 0 512 512" height="512" viewBox="0 0 512 512" width="512" xmlns="http://www.w3.org/2000/svg"><g><path d="m316.703 216.874 60.137-43.873c11.697-8.534 5.632-27.118-8.841-27.118h-74.267l-22.962-70.965c-4.463-13.788-24.071-13.816-28.543 0l-22.962 70.965h-74.267c-14.48 0-20.532 18.588-8.841 27.118l60.137 43.873-22.979 71.013c-4.464 13.797 11.405 25.277 23.112 16.736l60.07-43.825 60.07 43.825c11.638 8.488 27.587-2.907 23.112-16.736zm-31.886-1.098 12.091 37.367-31.567-23.031c-5.269-3.843-12.414-3.842-17.682 0l-31.567 23.031 12.091-37.367c1.995-6.166-.195-12.916-5.431-16.736l-31.741-23.157h39.168c6.505 0 12.269-4.193 14.271-10.382l12.05-37.24 12.05 37.24c2.003 6.188 7.767 10.382 14.271 10.382h39.168l-31.741 23.157c-5.236 3.82-7.426 10.57-5.431 16.736z"/><path d="m499.556 472.922-85.829-150.828c25.867-33.776 41.273-76.025 41.273-121.825-.001-110.429-89.496-200.269-199.501-200.269s-199.5 89.84-199.5 200.269c0 46.139 15.631 88.676 41.846 122.575l-85.404 150.081c-9.902 17.411 2.624 39.075 22.669 39.075h127.55c13.613 0 26.257-7.361 32.997-19.209l52.582-92.4c5.472.197 9.578.205 15.506-.038l52.596 92.437c6.741 11.85 19.385 19.211 32.998 19.211h127.55c20.022-.001 32.583-21.643 22.667-39.079zm-329.975 5.033c-1.419 2.495-4.071 4.045-6.922 4.045h-120.865l77.261-135.771c26.527 25.004 59.841 42.828 96.841 50.338zm-83.582-277.686c0-93.887 76.037-170.269 169.5-170.269s169.5 76.382 169.5 170.269-76.037 170.269-169.5 170.269-169.5-76.383-169.5-170.269zm263.34 281.731c-2.851 0-5.503-1.55-6.923-4.046l-46.413-81.569c36.942-7.678 70.176-25.643 96.594-50.766l77.607 136.381z"/></g></svg>