<svg id="Capa_1" enable-background="new 0 0 512 512" height="512" viewBox="0 0 512 512" width="512" xmlns="http://www.w3.org/2000/svg"><g id="XMLID_1312_"><path id="XMLID_1335_" d="m299.807 177.163c-7.09-7.09-18.585-7.09-25.675 0l-95.684 95.684c-7.089 7.09-7.089 18.584 0 25.674 3.545 3.545 8.192 5.317 12.838 5.317s9.293-1.772 12.838-5.317l95.684-95.684c7.088-7.09 7.088-18.585-.001-25.674z"/><circle id="XMLID_1342_" cx="287.387" cy="285.684" r="18.155"/><circle id="XMLID_1343_" cx="190.868" cy="190" r="18.155"/><path id="XMLID_1346_" d="m444.064 311.094c11.237-33.06 16.936-67.547 16.936-102.637v-118.322c0-4.856-3.489-9.011-8.272-9.85l-.652-.114c-73.936-12.964-143.866-39.44-207.847-78.695-3.215-1.973-7.267-1.968-10.478.011-63.534 39.17-133.026 65.567-206.543 78.458l-1.936.339c-4.783.839-8.272 4.994-8.272 9.851v118.322c0 67.528 20.898 132.158 60.435 186.901 39.537 54.744 94.318 94.903 158.421 116.134 1.021.338 2.083.507 3.144.507 1.064 0 2.128-.17 3.152-.51l.127-.042c23.532-7.806 46.06-18.321 67.084-31.283 19.697 19.662 46.868 31.836 76.831 31.836 59.996 0 108.806-48.811 108.806-108.807 0-38.743-20.359-72.817-50.936-92.099zm-205.065 180.353c-120.969-41.536-201.999-154.836-201.999-282.99v-109.957c71.674-13.34 139.573-39.152 202.013-76.796 62.492 37.5 130.384 63.306 201.987 76.781v109.972c0 31.932-5.045 63.326-14.973 93.48-8.583-3.388-17.698-5.707-27.179-6.81 9.391-27.878 14.151-56.969 14.151-86.67v-79.23c0-4.629-3.177-8.653-7.679-9.727-56.37-13.45-110.679-34.529-161.418-62.653-3.021-1.675-6.693-1.671-9.71.008-50.733 28.231-105.069 49.33-161.5 62.709-4.509 1.069-7.693 5.096-7.693 9.73v79.163c0 54.618 16.148 107.291 46.699 152.326 30.438 44.87 73.173 79.25 123.584 99.422 1.192.477 2.454.716 3.715.716s2.523-.239 3.716-.716c14.209-5.687 27.932-12.591 40.959-20.567 3.181 8.921 7.493 17.308 12.766 24.988-18.101 10.923-37.366 19.925-57.439 26.821zm38.388-88.254c0 5.448.408 10.803 1.185 16.039-12.513 8.102-25.785 15.108-39.575 20.884-93.687-39.199-153.997-129.69-153.997-231.659v-71.306c53.674-13.418 105.439-33.625 154.064-60.146 48.611 26.413 100.338 46.596 153.936 60.067v71.385c0 29.644-5.11 58.627-15.192 86.25-56.094 4.296-100.421 51.312-100.421 108.486zm108.807 88.807c-48.968 0-88.807-39.838-88.807-88.807s39.839-88.807 88.807-88.807 88.806 39.839 88.806 88.807-39.839 88.807-88.806 88.807z"/><path id="XMLID_1375_" d="m375.782 399.341-20.851-20.851-24.69 24.689 45.541 45.541 66.364-66.364-24.689-24.689z"/></g></svg>